<svg width="654" height="443" viewBox="0 0 654 443" fill="none" xmlns="http://www.w3.org/2000/svg">
<path d="M-37.8 138.247L-38.2586 139.136L-38.2529 139.139L-37.8 138.247ZM-59.2 121.447L-59.8949 120.728L-60.5756 121.386L-59.9562 122.101L-59.2 121.447ZM-41.4 104.247L-40.6407 103.596L-41.3315 102.79L-42.0949 103.528L-41.4 104.247ZM-25.4 117.047L-25.8472 117.942L-25.8392 117.945L-25.4 117.047ZM12.8 116.247L13.4426 117.013L13.4498 117.007L13.4568 117.001L12.8 116.247ZM15 90.4471L15.7399 89.7744L15 90.4471ZM0 84.0471L0.178886 83.0632L0.164383 83.0606L0.149811 83.0583L0 84.0471ZM-13.2 82.0471L-13.356 83.0349L-13.3498 83.0358L-13.2 82.0471ZM-51.6 24.4471L-52.5037 24.019L-52.5084 24.0288L-52.5128 24.0387L-51.6 24.4471ZM-41.4 11.4471L-42.0332 10.6731L-41.4 11.4471ZM-25.6 3.24706L-25.3088 4.20382L-25.296 4.19972L-25.6 3.24706ZM23.2 5.44707L22.7967 6.36215H22.7968L23.2 5.44707ZM43.4 20.8471L44.0866 21.5741L44.7659 20.9326L44.1719 20.2113L43.4 20.8471ZM25.4 37.8471L24.6239 38.4777L25.3033 39.3139L26.0866 38.5741L25.4 37.8471ZM12.8 27.4471L12.3245 28.3268L12.8 27.4471ZM-23 27.8471L-22.4 28.6471L-22.3956 28.6438L-23 27.8471ZM-24 51.6471L-24.6369 52.418H-24.6369L-24 51.6471ZM-9.2 57.2471L-9.01845 56.2637L-9.02621 56.2623L-9.2 57.2471ZM3.8 59.6471L3.61845 60.6305L3.62357 60.6314L3.8 59.6471ZM35 73.2471L34.3001 73.9613L34.3073 73.9683L34.3146 73.9753L35 73.2471ZM41.6 118.447L40.6843 118.045L40.6797 118.056L41.6 118.447ZM31.4 132.447L32.0601 133.198L32.0616 133.197L31.4 132.447ZM15 141.447L14.6896 140.496L14.6838 140.498L15 141.447ZM-7.2 143.647C-19.0845 143.647 -29.1205 141.534 -37.3471 137.355L-38.2529 139.139C-29.6795 143.493 -19.3155 145.647 -7.2 145.647V143.647ZM-37.3414 137.358C-45.4965 133.149 -52.5284 127.628 -58.4438 120.793L-59.9562 122.101C-53.8716 129.133 -46.6368 134.811 -38.2586 139.136L-37.3414 137.358ZM-58.5051 122.166L-40.7051 104.966L-42.0949 103.528L-59.8949 120.728L-58.5051 122.166ZM-42.1593 104.898C-37.2833 110.586 -31.8471 114.942 -25.8472 117.941L-24.9528 116.153C-30.6863 113.286 -35.9167 109.108 -40.6407 103.596L-42.1593 104.898ZM-25.8392 117.945C-19.692 120.951 -12.9401 122.447 -5.6 122.447V120.447C-12.6599 120.447 -19.108 119.01 -24.9608 116.149L-25.8392 117.945ZM-5.6 122.447C2.6536 122.447 9.05743 120.691 13.4426 117.013L12.1574 115.481C8.27592 118.736 2.41308 120.447 -5.6 120.447V122.447ZM13.4568 117.001C17.8304 113.192 20 108.105 20 101.847H18C18 107.589 16.0363 112.102 12.1432 115.493L13.4568 117.001ZM20 101.847C20 96.9784 18.603 92.9237 15.7399 89.7744L14.2601 91.1197C16.7304 93.8371 18 97.3824 18 101.847H20ZM15.7399 89.7744C12.8429 86.5876 7.56402 84.4059 0.178886 83.0632L-0.178886 85.0309C7.10265 86.3549 11.8238 88.4398 14.2601 91.1197L15.7399 89.7744ZM0.149811 83.0583L-13.0502 81.0583L-13.3498 83.0358L-0.149803 85.0358L0.149811 83.0583ZM-13.044 81.0593C-26.8617 78.8776 -37.0878 74.4509 -43.8533 67.8797C-50.5936 61.3329 -54 52.5591 -54 41.4471H-56C-56 53.0017 -52.4398 62.3279 -45.2467 69.3144C-38.0788 76.2765 -27.405 80.8166 -13.356 83.0348L-13.044 81.0593ZM-54 41.4471C-54 35.303 -52.8894 29.778 -50.6872 24.8554L-52.5128 24.0387C-54.8439 29.2495 -56 35.0578 -56 41.4471H-54ZM-50.6963 24.8751C-48.3606 19.9443 -45.0537 15.7286 -40.7668 12.221L-42.0332 10.6731C-46.5462 14.3656 -50.0394 18.8165 -52.5037 24.019L-50.6963 24.8751ZM-40.7668 12.221C-36.4799 8.71356 -31.3332 6.03724 -25.3088 4.20374L-25.8912 2.29038C-32.1335 4.19022 -37.5201 6.98055 -42.0332 10.6731L-40.7668 12.221ZM-25.296 4.19972C-19.1446 2.23653 -12.1831 1.24706 -4.39999 1.24706V-0.752937C-12.3503 -0.752937 -19.522 0.257587 -25.904 2.2944L-25.296 4.19972ZM-4.39999 1.24706C6.02499 1.24706 15.0824 2.9626 22.7967 6.36215L23.6033 4.53198C15.5843 0.998199 6.24168 -0.752937 -4.39999 -0.752937V1.24706ZM22.7968 6.36215C30.5168 9.76419 37.1249 14.8003 42.6281 21.4828L44.1719 20.2113C38.4751 13.2938 31.6166 8.06327 23.6033 4.53198L22.7968 6.36215ZM42.7134 20.12L24.7134 37.1201L26.0866 38.5741L44.0866 21.5741L42.7134 20.12ZM26.1761 37.2165C22.6249 32.8457 18.3221 29.2952 13.2755 26.5674L12.3245 28.3268C17.1446 30.9322 21.2418 34.315 24.6239 38.4777L26.1761 37.2165ZM13.2755 26.5674C8.15573 23.7999 1.77976 22.4471 -5.8 22.4471V24.4471C1.55358 24.4471 7.57761 25.7609 12.3245 28.3268L13.2755 26.5674ZM-5.8 22.4471C-13.5027 22.4471 -19.4901 23.9292 -23.6044 27.0504L-22.3956 28.6438C-18.7766 25.8983 -13.2973 24.4471 -5.8 24.4471V22.4471ZM-23.6 27.0471C-27.6165 30.0594 -29.6 34.3737 -29.6 39.8471H-27.6C-27.6 34.9205 -25.8502 31.2347 -22.4 28.6471L-23.6 27.0471ZM-29.6 39.8471C-29.6 45.3705 -28.0056 49.6352 -24.6369 52.418L-23.3631 50.8761C-26.1277 48.5923 -27.6 44.9903 -27.6 39.8471H-29.6ZM-24.6369 52.418C-21.3718 55.1153 -16.235 57.021 -9.37378 58.2318L-9.02621 56.2623C-15.765 55.0731 -20.4949 53.2455 -23.3631 50.8761L-24.6369 52.418ZM-9.38155 58.2305L3.61845 60.6304L3.98154 58.6637L-9.01845 56.2637L-9.38155 58.2305ZM3.62357 60.6314C17.6583 63.147 27.8349 67.6254 34.3001 73.9613L35.6999 72.5329C28.8317 65.802 18.2084 61.2138 3.97643 58.6628L3.62357 60.6314ZM34.3146 73.9753C40.8672 80.1424 44.2 88.8514 44.2 100.247H46.2C46.2 88.4427 42.7328 79.1517 35.6854 72.5189L34.3146 73.9753ZM44.2 100.247C44.2 106.792 43.0226 112.719 40.6844 118.045L42.5157 118.849C44.9774 113.242 46.2 107.036 46.2 100.247H44.2ZM40.6797 118.056C38.4739 123.246 35.1648 127.792 30.7384 131.697L32.0616 133.197C36.7019 129.103 40.1927 124.315 42.5203 118.838L40.6797 118.056ZM30.7399 131.696C26.4578 135.459 21.1161 138.398 14.6896 140.496L15.3104 142.398C21.9506 140.229 27.5422 137.169 32.0601 133.198L30.7399 131.696ZM14.6838 140.498C8.4072 142.591 1.11776 143.647 -7.2 143.647V145.647C1.28225 145.647 8.7928 144.57 15.3162 142.396L14.6838 140.498ZM128.466 124.847H129.466V123.847H128.466V124.847ZM127.466 124.847V123.847H126.756L126.522 124.517L127.466 124.847ZM123.666 132.447L122.833 131.892L122.826 131.904L123.666 132.447ZM117.866 138.647L117.252 137.858L117.241 137.866L117.23 137.875L117.866 138.647ZM109.466 143.047L109.161 142.095L109.149 142.098L109.466 143.047ZM73.4656 134.047L72.6891 134.677L73.4656 134.047ZM64.8656 37.8471V36.8471H63.8656V37.8471H64.8656ZM90.4656 37.8471H91.4656V36.8471H90.4656V37.8471ZM94.6656 117.847L93.8557 118.434L93.8606 118.44L93.8656 118.447L94.6656 117.847ZM115.466 122.447L115.211 121.48L115.198 121.484L115.466 122.447ZM122.066 119.447L122.647 120.261L122.665 120.248L122.683 120.233L122.066 119.447ZM126.666 114.247L127.523 114.762L127.53 114.75L127.537 114.737L126.666 114.247ZM128.466 37.8471V36.8471H127.466V37.8471H128.466ZM154.066 37.8471H155.066V36.8471H154.066V37.8471ZM154.066 142.247V143.247H155.066V142.247H154.066ZM128.466 142.247H127.466V143.247H128.466V142.247ZM128.466 123.847H127.466V125.847H128.466V123.847ZM126.522 124.517C125.617 127.103 124.388 129.561 122.834 131.892L124.498 133.002C126.143 130.533 127.448 127.925 128.409 125.177L126.522 124.517ZM122.826 131.904C121.427 134.065 119.574 136.051 117.252 137.858L118.48 139.436C120.957 137.51 122.97 135.362 124.505 132.99L122.826 131.904ZM117.23 137.875C115.078 139.647 112.396 141.059 109.161 142.095L109.77 143.999C113.202 142.901 116.12 141.38 118.501 139.419L117.23 137.875ZM109.149 142.098C106.074 143.123 102.452 143.647 98.2656 143.647V145.647C102.613 145.647 106.457 145.104 109.782 143.996L109.149 142.098ZM98.2656 143.647C87.7044 143.647 79.7494 140.205 74.2422 133.417L72.6891 134.677C78.6485 142.022 87.2269 145.647 98.2656 145.647V143.647ZM74.2422 133.417C68.7048 126.592 65.8656 116.782 65.8656 103.847H63.8656C63.8656 117.046 66.7598 127.369 72.6891 134.677L74.2422 133.417ZM65.8656 103.847V37.8471H63.8656V103.847H65.8656ZM64.8656 38.8471H90.4656V36.8471H64.8656V38.8471ZM89.4656 37.8471V101.247H91.4656V37.8471H89.4656ZM89.4656 101.247C89.4656 108.557 90.8837 114.329 93.8557 118.434L95.4756 117.261C92.8475 113.631 91.4656 108.338 91.4656 101.247H89.4656ZM93.8656 118.447C96.911 122.508 101.725 124.447 108.066 124.447V122.447C102.139 122.447 98.0203 120.653 95.4656 117.247L93.8656 118.447ZM108.066 124.447C110.688 124.447 113.245 124.102 115.733 123.411L115.198 121.484C112.887 122.126 110.51 122.447 108.066 122.447V124.447ZM115.72 123.414C118.354 122.721 120.669 121.674 122.647 120.261L121.484 118.633C119.729 119.887 117.644 120.84 115.211 121.48L115.72 123.414ZM122.683 120.233C124.644 118.693 126.259 116.868 127.523 114.762L125.808 113.733C124.672 115.626 123.22 117.268 121.448 118.661L122.683 120.233ZM127.537 114.737C128.833 112.434 129.466 109.794 129.466 106.847H127.466C127.466 109.5 126.898 111.794 125.794 113.757L127.537 114.737ZM129.466 106.847V37.8471H127.466V106.847H129.466ZM128.466 38.8471H154.066V36.8471H128.466V38.8471ZM153.066 37.8471V142.247H155.066V37.8471H153.066ZM154.066 141.247H128.466V143.247H154.066V141.247ZM129.466 142.247V124.847H127.466V142.247H129.466ZM200.244 140.847L199.855 141.768L200.244 140.847ZM185.044 129.847L184.276 130.487L184.281 130.493L184.286 130.5L185.044 129.847ZM175.844 112.647L174.89 112.946L174.891 112.952L175.844 112.647ZM175.844 67.2471L174.891 66.9423L175.844 67.2471ZM185.044 50.2471L184.286 49.5945L184.285 49.5963L185.044 50.2471ZM200.244 39.2471L199.855 38.3258L200.244 39.2471ZM246.844 42.4471L246.278 43.2716L246.285 43.2767L246.844 42.4471ZM261.844 61.8471L262.252 62.7598L263.107 62.3772L262.781 61.4993L261.844 61.8471ZM240.844 71.2471L239.879 71.5102L240.186 72.637L241.252 72.1598L240.844 71.2471ZM234.044 60.4471L233.368 61.1842L233.384 61.1989L233.401 61.2128L234.044 60.4471ZM204.644 62.8471L203.861 62.2252L203.855 62.2324L203.849 62.2396L204.644 62.8471ZM204.644 117.447L203.849 118.055L203.859 118.068L203.87 118.08L204.644 117.447ZM235.044 119.447L235.721 120.183L235.729 120.176L235.736 120.168L235.044 119.447ZM242.844 107.647L243.276 106.745L242.312 106.283L241.915 107.276L242.844 107.647ZM262.444 117.047L263.38 117.4L263.703 116.542L262.876 116.145L262.444 117.047ZM246.644 137.847L247.184 138.689L247.195 138.682L246.644 137.847ZM220.844 143.647C213.219 143.647 206.489 142.398 200.633 139.926L199.855 141.768C205.999 144.362 213.001 145.647 220.844 145.647V143.647ZM200.633 139.926C194.771 137.451 189.831 133.874 185.802 129.195L184.286 130.5C188.523 135.42 193.717 139.177 199.855 141.768L200.633 139.926ZM185.812 129.207C181.904 124.517 178.895 118.901 176.796 112.342L174.891 112.952C177.059 119.726 180.184 125.577 184.276 130.487L185.812 129.207ZM176.798 112.348C174.7 105.66 173.644 98.1632 173.644 89.8471H171.644C171.644 98.331 172.721 106.034 174.89 112.946L176.798 112.348ZM173.644 89.8471C173.644 81.5305 174.7 74.1026 176.796 67.5518L174.891 66.9423C172.721 73.7249 171.644 81.3636 171.644 89.8471H173.644ZM176.796 67.5518C178.894 60.9947 181.901 55.4501 185.803 50.8979L184.285 49.5963C180.186 54.3773 177.06 60.1661 174.891 66.9423L176.796 67.5518ZM185.802 50.8996C189.831 46.2197 194.771 42.6434 200.633 40.1683L199.855 38.3258C193.717 40.9174 188.523 44.6744 184.286 49.5945L185.802 50.8996ZM200.633 40.1683C206.489 37.6957 213.219 36.4471 220.844 36.4471V34.4471C213.001 34.4471 205.999 35.7317 199.855 38.3258L200.633 40.1683ZM220.844 36.4471C231.231 36.4471 239.685 38.7472 246.278 43.2716L247.41 41.6226C240.402 36.8136 231.523 34.4471 220.844 34.4471V36.4471ZM246.285 43.2767C253.035 47.8197 257.908 54.1131 260.906 62.1949L262.781 61.4993C259.646 53.0477 254.519 46.4077 247.402 41.6175L246.285 43.2767ZM261.435 60.9343L240.435 70.3343L241.252 72.1598L262.252 62.7598L261.435 60.9343ZM241.809 70.9839C240.558 66.3975 238.184 62.6187 234.687 59.6814L233.401 61.2128C236.57 63.8754 238.73 67.2966 239.879 71.5102L241.809 70.9839ZM234.719 59.7099C231.286 56.563 226.619 55.0471 220.844 55.0471V57.0471C226.268 57.0471 230.401 58.4645 233.368 61.1842L234.719 59.7099ZM220.844 55.0471C213.42 55.0471 207.696 57.3955 203.861 62.2252L205.427 63.4689C208.792 59.2319 213.867 57.0471 220.844 57.0471V55.0471ZM203.849 62.2396C200.216 66.9916 198.444 73.1573 198.444 80.6471H200.444C200.444 73.4702 202.139 67.7692 205.438 63.4545L203.849 62.2396ZM198.444 80.6471V99.6471H200.444V80.6471H198.444ZM198.444 99.6471C198.444 107.137 200.216 113.303 203.849 118.055L205.438 116.84C202.139 112.525 200.444 106.824 200.444 99.6471H198.444ZM203.87 118.08C207.709 122.772 213.431 125.047 220.844 125.047V123.047C213.857 123.047 208.779 120.922 205.418 116.814L203.87 118.08ZM220.844 125.047C227.138 125.047 232.146 123.472 235.721 120.183L234.367 118.711C231.275 121.555 226.816 123.047 220.844 123.047V125.047ZM235.736 120.168C239.181 116.862 241.857 112.806 243.772 108.018L241.915 107.276C240.097 111.822 237.573 115.633 234.351 118.726L235.736 120.168ZM242.411 108.549L262.011 117.949L262.876 116.145L243.276 106.745L242.411 108.549ZM261.508 116.694C258.103 125.73 252.956 132.48 246.093 137.013L247.195 138.682C254.464 133.881 259.851 126.764 263.38 117.4L261.508 116.694ZM246.104 137.005C239.229 141.416 230.826 143.647 220.844 143.647V145.647C231.129 145.647 239.925 143.345 247.184 138.689L246.104 137.005ZM297.806 140.847L297.417 141.768L297.806 140.847ZM282.606 129.847L281.838 130.487L281.843 130.493L281.848 130.5L282.606 129.847ZM273.406 112.647L272.452 112.946L272.454 112.952L273.406 112.647ZM273.406 67.2471L272.454 66.9423L273.406 67.2471ZM282.606 50.2471L281.848 49.5945L281.847 49.5963L282.606 50.2471ZM297.806 39.2471L297.417 38.3258L297.806 39.2471ZM344.406 42.4471L343.84 43.2716L343.848 43.2767L344.406 42.4471ZM359.406 61.8471L359.815 62.7598L360.67 62.3772L360.344 61.4993L359.406 61.8471ZM338.406 71.2471L337.441 71.5102L337.749 72.637L338.815 72.1598L338.406 71.2471ZM331.606 60.4471L330.931 61.1842L330.946 61.1989L330.963 61.2128L331.606 60.4471ZM302.206 62.8471L301.423 62.2252L301.417 62.2324L301.412 62.2396L302.206 62.8471ZM302.206 117.447L301.412 118.055L301.422 118.068L301.432 118.08L302.206 117.447ZM332.606 119.447L333.283 120.183L333.291 120.176L333.299 120.168L332.606 119.447ZM340.406 107.647L340.839 106.745L339.875 106.283L339.478 107.276L340.406 107.647ZM360.006 117.047L360.942 117.4L361.265 116.542L360.439 116.145L360.006 117.047ZM344.206 137.847L344.746 138.689L344.757 138.682L344.206 137.847ZM318.406 143.647C310.782 143.647 304.051 142.398 298.195 139.926L297.417 141.768C303.561 144.362 310.564 145.647 318.406 145.647V143.647ZM298.195 139.926C292.333 137.451 287.394 133.874 283.364 129.195L281.848 130.5C286.085 135.42 291.279 139.177 297.417 141.768L298.195 139.926ZM283.374 129.207C279.466 124.517 276.457 118.901 274.359 112.342L272.454 112.952C274.622 119.726 277.746 125.577 281.838 130.487L283.374 129.207ZM274.36 112.348C272.262 105.66 271.206 98.1632 271.206 89.8471H269.206C269.206 98.331 270.284 106.034 272.452 112.946L274.36 112.348ZM271.206 89.8471C271.206 81.5305 272.262 74.1026 274.359 67.5518L272.454 66.9423C270.283 73.7249 269.206 81.3636 269.206 89.8471H271.206ZM274.359 67.5518C276.457 60.9947 279.464 55.4501 283.366 50.8979L281.847 49.5963C277.749 54.3773 274.622 60.1661 272.454 66.9423L274.359 67.5518ZM283.364 50.8996C287.394 46.2197 292.333 42.6434 298.195 40.1683L297.417 38.3258C291.279 40.9174 286.085 44.6744 281.848 49.5945L283.364 50.8996ZM298.195 40.1683C304.051 37.6957 310.782 36.4471 318.406 36.4471V34.4471C310.564 34.4471 303.561 35.7317 297.417 38.3258L298.195 40.1683ZM318.406 36.4471C328.793 36.4471 337.248 38.7472 343.84 43.2716L344.972 41.6226C337.965 36.8136 329.086 34.4471 318.406 34.4471V36.4471ZM343.848 43.2767C350.598 47.8197 355.471 54.1131 358.469 62.1949L360.344 61.4993C357.209 53.0477 352.082 46.4077 344.965 41.6175L343.848 43.2767ZM358.998 60.9343L337.998 70.3343L338.815 72.1598L359.815 62.7598L358.998 60.9343ZM339.371 70.9839C338.12 66.3975 335.746 62.6187 332.249 59.6814L330.963 61.2128C334.133 63.8754 336.292 67.2966 337.441 71.5102L339.371 70.9839ZM332.282 59.7099C328.849 56.563 324.182 55.0471 318.406 55.0471V57.0471C323.831 57.0471 327.964 58.4645 330.931 61.1842L332.282 59.7099ZM318.406 55.0471C310.983 55.0471 305.258 57.3955 301.423 62.2252L302.989 63.4689C306.354 59.2319 311.43 57.0471 318.406 57.0471V55.0471ZM301.412 62.2396C297.778 66.9916 296.006 73.1573 296.006 80.6471H298.006C298.006 73.4702 299.701 67.7692 303.001 63.4545L301.412 62.2396ZM296.006 80.6471V99.6471H298.006V80.6471H296.006ZM296.006 99.6471C296.006 107.137 297.778 113.303 301.412 118.055L303.001 116.84C299.701 112.525 298.006 106.824 298.006 99.6471H296.006ZM301.432 118.08C305.271 122.772 310.993 125.047 318.406 125.047V123.047C311.419 123.047 306.341 120.922 302.98 116.814L301.432 118.08ZM318.406 125.047C324.7 125.047 329.708 123.472 333.283 120.183L331.929 118.711C328.837 121.555 324.379 123.047 318.406 123.047V125.047ZM333.299 120.168C336.743 116.862 339.42 112.806 341.335 108.018L339.478 107.276C337.659 111.822 335.136 115.633 331.914 118.726L333.299 120.168ZM339.974 108.549L359.574 117.949L360.439 116.145L340.839 106.745L339.974 108.549ZM359.07 116.694C355.666 125.73 350.519 132.48 343.655 137.013L344.757 138.682C352.027 133.881 357.413 126.764 360.942 117.4L359.07 116.694ZM343.666 137.005C336.791 141.416 328.388 143.647 318.406 143.647V145.647C328.691 145.647 337.488 143.345 344.746 138.689L343.666 137.005ZM396.169 140.847L395.763 141.761L395.775 141.766L395.787 141.771L396.169 140.847ZM380.769 129.847L380.011 130.5L380.021 130.511L380.031 130.522L380.769 129.847ZM371.169 112.647L370.22 112.963L370.222 112.969L371.169 112.647ZM370.969 67.4471L370.022 67.1252L370.019 67.1337L370.016 67.1423L370.969 67.4471ZM380.569 50.4471L381.317 51.1102L381.327 51.0996L380.569 50.4471ZM395.769 39.4471L396.158 40.3683L396.166 40.3647L396.175 40.3609L395.769 39.4471ZM437.369 39.6471L436.946 40.5533L437.369 39.6471ZM452.169 51.0471L452.948 50.4197V50.4197L452.169 51.0471ZM460.769 67.8471L459.809 68.1271L459.812 68.1391L459.816 68.1511L460.769 67.8471ZM463.769 96.4471V97.4471H464.769V96.4471H463.769ZM394.369 96.4471V95.4471H393.369V96.4471H394.369ZM400.769 117.447L400.031 118.122L400.036 118.127L400.041 118.132L400.769 117.447ZM435.369 120.247L434.827 119.407L434.82 119.411L434.814 119.415L435.369 120.247ZM446.369 110.047L447.113 109.38L446.313 108.486L445.578 109.435L446.369 110.047ZM460.169 125.447L460.984 126.027L461.447 125.375L460.914 124.78L460.169 125.447ZM442.569 139.647L442.983 140.557L442.99 140.554L442.569 139.647ZM394.369 80.6471H393.369V81.6471H394.369V80.6471ZM437.169 80.6471V81.6471H438.169V80.6471H437.169ZM431.769 61.4471L430.974 62.0545L430.984 62.0676L430.995 62.0803L431.769 61.4471ZM416.969 143.647C409.345 143.647 402.544 142.399 396.551 139.923L395.787 141.771C402.06 144.362 409.126 145.647 416.969 145.647V143.647ZM396.575 139.933C390.696 137.32 385.677 133.733 381.507 129.172L380.031 130.522C384.394 135.294 389.642 139.04 395.763 141.761L396.575 139.933ZM381.527 129.195C377.486 124.502 374.346 118.884 372.116 112.325L370.222 112.969C372.525 119.743 375.785 125.592 380.011 130.5L381.527 129.195ZM372.117 112.331C369.89 105.649 368.769 98.1576 368.769 89.8471H366.769C366.769 98.3365 367.914 106.046 370.22 112.963L372.117 112.331ZM368.769 89.8471C368.769 81.6656 369.824 74.304 371.921 67.7518L370.016 67.1423C367.846 73.9234 366.769 81.4952 366.769 89.8471H368.769ZM371.916 67.769C374.145 61.2118 377.283 55.6653 381.317 51.1101L379.82 49.784C375.588 54.5622 372.326 60.349 370.022 67.1252L371.916 67.769ZM381.327 51.0996C385.356 46.4197 390.296 42.8434 396.158 40.3683L395.38 38.5258C389.242 41.1174 384.048 44.8744 379.811 49.7945L381.327 51.0996ZM396.175 40.3609C402.028 37.7593 408.687 36.4471 416.169 36.4471V34.4471C408.451 34.4471 401.509 35.8015 395.363 38.5333L396.175 40.3609ZM416.169 36.4471C424.189 36.4471 431.105 37.8275 436.946 40.5533L437.792 38.7409C431.633 35.8666 424.416 34.4471 416.169 34.4471V36.4471ZM436.946 40.5533C442.818 43.2936 447.626 47.002 451.39 51.6744L452.948 50.4197C448.978 45.4921 443.919 41.6006 437.792 38.7409L436.946 40.5533ZM451.39 51.6744C455.167 56.3636 457.976 61.8432 459.809 68.1271L461.729 67.5671C459.828 61.0509 456.903 55.3306 452.948 50.4197L451.39 51.6744ZM459.816 68.1511C461.782 74.3107 462.769 80.9406 462.769 88.0471H464.769C464.769 80.7536 463.756 73.9168 461.721 67.543L459.816 68.1511ZM462.769 88.0471V96.4471H464.769V88.0471H462.769ZM463.769 95.4471H394.369V97.4471H463.769V95.4471ZM393.369 96.4471V99.0471H395.369V96.4471H393.369ZM393.369 99.0471C393.369 106.844 395.563 113.235 400.031 118.122L401.507 116.772C397.441 112.326 395.369 106.451 395.369 99.0471H393.369ZM400.041 118.132C404.555 122.929 411.193 125.247 419.769 125.247V123.247C411.544 123.247 405.516 121.031 401.497 116.762L400.041 118.132ZM419.769 125.247C426.302 125.247 431.713 123.886 435.923 121.079L434.814 119.415C431.025 121.941 426.035 123.247 419.769 123.247V125.247ZM435.911 121.087C440.145 118.356 443.895 114.876 447.159 110.659L445.578 109.435C442.443 113.484 438.859 116.805 434.827 119.407L435.911 121.087ZM445.624 110.714L459.424 126.114L460.914 124.78L447.113 109.38L445.624 110.714ZM459.354 124.868C455.199 130.71 449.476 135.338 442.148 138.74L442.99 140.554C450.595 137.023 456.605 132.184 460.984 126.027L459.354 124.868ZM442.155 138.737C434.976 142 426.589 143.647 416.969 143.647V145.647C426.816 145.647 435.495 143.961 442.983 140.557L442.155 138.737ZM416.569 53.6471C409.522 53.6471 403.834 56.0088 399.619 60.7854L401.119 62.1087C404.904 57.8187 410.016 55.6471 416.569 55.6471V53.6471ZM399.619 60.7854C395.428 65.5351 393.369 71.6524 393.369 79.0471H395.369C395.369 72.0417 397.31 66.4257 401.119 62.1087L399.619 60.7854ZM393.369 79.0471V80.6471H395.369V79.0471H393.369ZM394.369 81.6471H437.169V79.6471H394.369V81.6471ZM438.169 80.6471V78.8471H436.169V80.6471H438.169ZM438.169 78.8471C438.169 71.4791 436.324 65.4357 432.543 60.8138L430.995 62.0803C434.413 66.2584 436.169 71.8151 436.169 78.8471H438.169ZM432.563 60.8396C428.874 56.0154 423.488 53.6471 416.569 53.6471V55.6471C422.983 55.6471 427.73 57.8121 430.974 62.0545L432.563 60.8396ZM491.292 139.647L490.838 140.538L490.845 140.542L490.852 140.545L491.292 139.647ZM473.292 125.447L472.594 124.731L471.919 125.389L472.536 126.102L473.292 125.447ZM488.892 110.247L489.643 109.587L488.948 108.796L488.194 109.531L488.892 110.247ZM501.492 120.647L501.004 121.52L501.015 121.526L501.492 120.647ZM530.692 121.247L530.086 120.452L530.077 120.459L530.068 120.466L530.692 121.247ZM531.892 105.247L531.185 105.954L531.21 105.979L531.237 106.003L531.892 105.247ZM522.092 101.447L522.234 100.457L522.226 100.456L522.092 101.447ZM511.692 100.047L511.826 99.056L511.821 99.0553L511.692 100.047ZM485.692 90.4471L485.039 91.2039L485.048 91.2118L485.057 91.2195L485.692 90.4471ZM479.692 54.8471L480.598 55.27L480.604 55.2587L479.692 54.8471ZM487.692 44.4471L488.32 45.225L488.329 45.2178L488.338 45.2104L487.692 44.4471ZM500.092 37.8471L500.384 38.8034L500.393 38.8009L500.401 38.7983L500.092 37.8471ZM529.892 36.6471L529.69 37.6263L529.709 37.6303L529.728 37.6335L529.892 36.6471ZM540.692 39.8471L540.276 40.7561L540.291 40.7634L540.308 40.7701L540.692 39.8471ZM549.492 45.0471L548.867 45.8279L548.88 45.8377L548.892 45.8471L549.492 45.0471ZM557.292 51.8471L557.999 52.5542L558.706 51.8471L557.999 51.14L557.292 51.8471ZM542.292 66.8471L541.57 67.539L542.277 68.2765L542.999 67.5542L542.292 66.8471ZM505.092 58.6471L504.473 57.8622L504.462 57.8704L504.452 57.8788L505.092 58.6471ZM504.492 74.4471L503.81 75.1781L503.835 75.2015L503.862 75.2232L504.492 74.4471ZM515.092 78.2471L514.932 79.2342L514.947 79.2365L514.961 79.2384L515.092 78.2471ZM525.692 79.6471L525.833 78.657L525.823 78.6557L525.692 79.6471ZM556.292 124.447L555.398 124L555.392 124.012L556.292 124.447ZM547.692 135.247L548.31 136.033L548.319 136.027L548.327 136.02L547.692 135.247ZM534.092 142.247L534.386 143.203L534.394 143.201L534.401 143.198L534.092 142.247ZM516.492 143.647C506.598 143.647 498.359 141.997 491.732 138.749L490.852 140.545C497.826 143.963 506.386 145.647 516.492 145.647V143.647ZM491.746 138.756C485.066 135.35 479.167 130.699 474.048 124.792L472.536 126.102C477.817 132.195 483.919 137.01 490.838 140.538L491.746 138.756ZM473.99 126.163L489.59 110.963L488.194 109.531L472.594 124.731L473.99 126.163ZM488.141 110.907C492.073 115.382 496.36 118.925 501.004 121.52L501.98 119.774C497.558 117.303 493.444 113.912 489.643 109.587L488.141 110.907ZM501.015 121.526C505.846 124.149 511.348 125.447 517.492 125.447V123.447C511.637 123.447 506.471 122.212 501.969 119.768L501.015 121.526ZM517.492 125.447C523.692 125.447 528.379 124.378 531.317 122.028L530.068 120.466C527.672 122.382 523.559 123.447 517.492 123.447V125.447ZM531.298 122.042C534.363 119.707 535.892 116.471 535.892 112.447H533.892C533.892 115.89 532.621 118.52 530.086 120.452L531.298 122.042ZM535.892 112.447C535.892 109.141 534.802 106.446 532.547 104.491L531.237 106.003C532.982 107.515 533.892 109.619 533.892 112.447H535.892ZM532.599 104.54C530.5 102.44 526.966 101.133 522.234 100.457L521.951 102.437C526.552 103.094 529.551 104.32 531.185 105.954L532.599 104.54ZM522.226 100.456L511.826 99.056L511.559 101.038L521.959 102.438L522.226 100.456ZM511.821 99.0553C500.591 97.6021 492.129 94.4452 486.327 89.6746L485.057 91.2195C491.255 96.3156 500.127 99.5587 511.564 101.039L511.821 99.0553ZM486.346 89.6902C480.75 84.8577 477.892 77.8316 477.892 68.4471H475.892C475.892 78.2625 478.901 85.9031 485.039 91.2039L486.346 89.6902ZM477.892 68.4471C477.892 63.505 478.802 59.1193 480.598 55.27L478.786 54.4242C476.849 58.5748 475.892 63.2559 475.892 68.4471H477.892ZM480.604 55.2587C482.407 51.2653 484.978 47.9249 488.32 45.225L487.064 43.6691C483.473 46.5692 480.711 50.1622 478.781 54.4355L480.604 55.2587ZM488.338 45.2104C491.691 42.3736 495.7 40.2346 500.384 38.8034L499.8 36.8907C494.884 38.3928 490.627 40.6539 487.046 43.6837L488.338 45.2104ZM500.401 38.7983C505.22 37.2352 510.581 36.4471 516.492 36.4471V34.4471C510.404 34.4471 504.831 35.2589 499.784 36.8958L500.401 38.7983ZM516.492 36.4471C521.509 36.4471 525.905 36.8434 529.69 37.6263L530.095 35.6678C526.146 34.8508 521.609 34.4471 516.492 34.4471V36.4471ZM529.728 37.6335C533.654 38.2878 537.167 39.3314 540.276 40.7561L541.109 38.938C537.817 37.4295 534.131 36.3397 530.057 35.6607L529.728 37.6335ZM540.308 40.7701C543.423 42.0681 546.275 43.7539 548.867 45.8279L550.117 44.2662C547.376 42.0736 544.362 40.2927 541.077 38.924L540.308 40.7701ZM548.892 45.8471C551.518 47.8167 554.083 50.0518 556.585 52.5542L557.999 51.14C555.435 48.5756 552.799 46.2775 550.092 44.2471L548.892 45.8471ZM556.585 51.14L541.585 66.14L542.999 67.5542L557.999 52.5542L556.585 51.14ZM543.014 66.1552C539.862 62.8663 536.101 60.1333 531.739 57.9526L530.845 59.7415C535.017 61.8275 538.589 64.4278 541.57 67.539L543.014 66.1552ZM531.739 57.9526C527.325 55.7456 522.504 54.6471 517.292 54.6471V56.6471C522.214 56.6471 526.726 57.6819 530.845 59.7415L531.739 57.9526ZM517.292 54.6471C511.616 54.6471 507.271 55.6525 504.473 57.8622L505.712 59.432C507.98 57.6416 511.768 56.6471 517.292 56.6471V54.6471ZM504.452 57.8788C501.818 60.0741 500.492 62.9586 500.492 66.4471H502.492C502.492 63.5355 503.567 61.22 505.732 59.4153L504.452 57.8788ZM500.492 66.4471C500.492 70.1122 501.556 73.0746 503.81 75.1781L505.174 73.716C503.428 72.0862 502.492 69.7153 502.492 66.4471H500.492ZM503.862 75.2232C506.201 77.1243 509.947 78.4257 514.932 79.2342L515.252 77.26C510.371 76.4684 507.05 75.2366 505.123 73.671L503.862 75.2232ZM514.961 79.2384L525.561 80.6385L525.823 78.6557L515.223 77.2557L514.961 79.2384ZM525.552 80.6371C536.712 82.222 544.94 85.5397 550.369 90.4862C555.764 95.4031 558.492 102.019 558.492 110.447H560.492C560.492 101.542 557.587 94.3577 551.716 89.0079C545.877 83.6878 537.206 80.2721 525.833 78.657L525.552 80.6371ZM558.492 110.447C558.492 115.368 557.457 119.881 555.398 124L557.187 124.894C559.394 120.48 560.492 115.659 560.492 110.447H558.492ZM555.392 124.012C553.458 128.008 550.685 131.495 547.057 134.474L548.327 136.02C552.166 132.866 555.126 129.153 557.192 124.883L555.392 124.012ZM547.074 134.461C543.449 137.31 539.024 139.593 533.783 141.296L534.401 143.198C539.827 141.435 544.469 139.051 548.31 136.033L547.074 134.461ZM533.798 141.291C528.71 142.857 522.945 143.647 516.492 143.647V145.647C523.106 145.647 529.074 144.837 534.386 143.203L533.798 141.291ZM585.73 139.647L585.276 140.538L585.282 140.542L585.29 140.545L585.73 139.647ZM567.73 125.447L567.032 124.731L566.356 125.389L566.974 126.102L567.73 125.447ZM583.33 110.247L584.081 109.587L583.386 108.796L582.632 109.531L583.33 110.247ZM595.93 120.647L595.442 121.52L595.453 121.526L595.93 120.647ZM625.13 121.247L624.524 120.452L624.514 120.459L624.505 120.466L625.13 121.247ZM626.33 105.247L625.623 105.954L625.648 105.979L625.675 106.003L626.33 105.247ZM616.53 101.447L616.671 100.457L616.663 100.456L616.53 101.447ZM606.13 100.047L606.263 99.056L606.258 99.0553L606.13 100.047ZM580.13 90.4471L579.476 91.2039L579.485 91.2118L579.495 91.2195L580.13 90.4471ZM574.13 54.8471L575.036 55.27L575.041 55.2587L574.13 54.8471ZM582.13 44.4471L582.758 45.225L582.767 45.2178L582.776 45.2104L582.13 44.4471ZM594.53 37.8471L594.822 38.8034L594.83 38.8009L594.838 38.7983L594.53 37.8471ZM624.33 36.6471L624.127 37.6263L624.146 37.6303L624.165 37.6335L624.33 36.6471ZM635.13 39.8471L634.713 40.7561L634.729 40.7634L634.745 40.7701L635.13 39.8471ZM643.93 45.0471L643.305 45.8279L643.317 45.8377L643.33 45.8471L643.93 45.0471ZM651.73 51.8471L652.437 52.5542L653.144 51.8471L652.437 51.14L651.73 51.8471ZM636.73 66.8471L636.008 67.539L636.714 68.2765L637.437 67.5542L636.73 66.8471ZM599.53 58.6471L598.91 57.8622L598.9 57.8704L598.89 57.8788L599.53 58.6471ZM598.93 74.4471L598.247 75.1781L598.272 75.2015L598.299 75.2232L598.93 74.4471ZM609.53 78.2471L609.37 79.2342L609.384 79.2365L609.399 79.2384L609.53 78.2471ZM620.13 79.6471L620.27 78.657L620.261 78.6557L620.13 79.6471ZM650.73 124.447L649.835 124L649.83 124.012L650.73 124.447ZM642.13 135.247L642.747 136.033L642.756 136.027L642.764 136.02L642.13 135.247ZM628.53 142.247L628.824 143.203L628.831 143.201L628.839 143.198L628.53 142.247ZM610.93 143.647C601.035 143.647 592.796 141.997 586.17 138.749L585.29 140.545C592.263 143.963 600.824 145.647 610.93 145.647V143.647ZM586.184 138.756C579.503 135.35 573.604 130.699 568.485 124.792L566.974 126.102C572.255 132.195 578.356 137.01 585.276 140.538L586.184 138.756ZM568.428 126.163L584.028 110.963L582.632 109.531L567.032 124.731L568.428 126.163ZM582.579 110.907C586.511 115.382 590.797 118.925 595.442 121.52L596.417 119.774C591.995 117.303 587.882 113.912 584.081 109.587L582.579 110.907ZM595.453 121.526C600.284 124.149 605.785 125.447 611.93 125.447V123.447C606.074 123.447 600.909 122.212 596.407 119.768L595.453 121.526ZM611.93 125.447C618.13 125.447 622.816 124.378 625.754 122.028L624.505 120.466C622.11 122.382 617.996 123.447 611.93 123.447V125.447ZM625.736 122.042C628.801 119.707 630.33 116.471 630.33 112.447H628.33C628.33 115.89 627.058 118.52 624.524 120.452L625.736 122.042ZM630.33 112.447C630.33 109.141 629.24 106.446 626.985 104.491L625.675 106.003C627.42 107.515 628.33 109.619 628.33 112.447H630.33ZM627.037 104.54C624.937 102.44 621.403 101.133 616.671 100.457L616.388 102.437C620.989 103.094 623.989 104.32 625.623 105.954L627.037 104.54ZM616.663 100.456L606.263 99.056L605.996 101.038L616.396 102.438L616.663 100.456ZM606.258 99.0553C595.028 97.6021 586.567 94.4452 580.765 89.6746L579.495 91.2195C585.693 96.3156 594.564 99.5587 606.001 101.039L606.258 99.0553ZM580.783 89.6902C575.188 84.8577 572.33 77.8316 572.33 68.4471H570.33C570.33 78.2625 573.338 85.9031 579.476 91.2039L580.783 89.6902ZM572.33 68.4471C572.33 63.505 573.24 59.1193 575.036 55.27L573.224 54.4242C571.287 58.5748 570.33 63.2559 570.33 68.4471H572.33ZM575.041 55.2587C576.845 51.2653 579.415 47.9249 582.758 45.225L581.501 43.6691C577.911 46.5692 575.148 50.1622 573.218 54.4355L575.041 55.2587ZM582.776 45.2104C586.128 42.3736 590.138 40.2346 594.822 38.8034L594.237 36.8907C589.321 38.3928 585.064 40.6539 581.484 43.6837L582.776 45.2104ZM594.838 38.7983C599.658 37.2352 605.018 36.4471 610.93 36.4471V34.4471C604.841 34.4471 599.268 35.2589 594.221 36.8958L594.838 38.7983ZM610.93 36.4471C615.946 36.4471 620.343 36.8434 624.127 37.6263L624.532 35.6678C620.583 34.8508 616.046 34.4471 610.93 34.4471V36.4471ZM624.165 37.6335C628.091 38.2878 631.604 39.3314 634.713 40.7561L635.546 38.938C632.255 37.4295 628.568 36.3397 624.494 35.6607L624.165 37.6335ZM634.745 40.7701C637.86 42.0681 640.712 43.7539 643.305 45.8279L644.554 44.2662C641.814 42.0736 638.799 40.2927 635.514 38.924L634.745 40.7701ZM643.33 45.8471C645.956 47.8167 648.52 50.0518 651.023 52.5542L652.437 51.14C649.872 48.5756 647.237 46.2775 644.53 44.2471L643.33 45.8471ZM651.023 51.14L636.023 66.14L637.437 67.5542L652.437 52.5542L651.023 51.14ZM637.452 66.1552C634.3 62.8663 630.538 60.1333 626.177 57.9526L625.282 59.7415C629.454 61.8275 633.026 64.4278 636.008 67.539L637.452 66.1552ZM626.177 57.9526C621.763 55.7456 616.942 54.6471 611.73 54.6471V56.6471C616.651 56.6471 621.163 57.6819 625.282 59.7415L626.177 57.9526ZM611.73 54.6471C606.054 54.6471 601.709 55.6525 598.91 57.8622L600.149 59.432C602.417 57.6416 606.206 56.6471 611.73 56.6471V54.6471ZM598.89 57.8788C596.255 60.0741 594.93 62.9586 594.93 66.4471H596.93C596.93 63.5355 598.004 61.22 600.17 59.4153L598.89 57.8788ZM594.93 66.4471C594.93 70.1122 595.994 73.0746 598.247 75.1781L599.612 73.716C597.866 72.0862 596.93 69.7153 596.93 66.4471H594.93ZM598.299 75.2232C600.639 77.1243 604.384 78.4257 609.37 79.2342L609.69 77.26C604.809 76.4684 601.487 75.2366 599.56 73.671L598.299 75.2232ZM609.399 79.2384L619.999 80.6385L620.261 78.6557L609.661 77.2557L609.399 79.2384ZM619.989 80.6371C631.149 82.222 639.378 85.5397 644.806 90.4862C650.202 95.4031 652.93 102.019 652.93 110.447H654.93C654.93 101.542 652.024 94.3577 646.153 89.0079C640.315 83.6878 631.643 80.2721 620.27 78.657L619.989 80.6371ZM652.93 110.447C652.93 115.368 651.895 119.881 649.835 124L651.624 124.894C653.831 120.48 654.93 115.659 654.93 110.447H652.93ZM649.83 124.012C647.896 128.008 645.122 131.495 641.495 134.474L642.764 136.02C646.604 132.866 649.564 129.153 651.63 124.883L649.83 124.012ZM641.512 134.461C637.886 137.31 633.462 139.593 628.221 141.296L628.839 143.198C634.264 141.435 638.907 139.051 642.747 136.033L641.512 134.461ZM628.236 141.291C623.148 142.857 617.383 143.647 610.93 143.647V145.647C617.543 145.647 623.512 144.837 628.824 143.203L628.236 141.291ZM-37.8 398.247L-38.2586 399.136L-38.2529 399.139L-37.8 398.247ZM-59.2 381.447L-59.8949 380.728L-60.5756 381.386L-59.9562 382.101L-59.2 381.447ZM-41.4 364.247L-40.6407 363.596L-41.3315 362.79L-42.0949 363.528L-41.4 364.247ZM-25.4 377.047L-25.8472 377.942L-25.8392 377.945L-25.4 377.047ZM12.8 376.247L13.4426 377.013L13.4498 377.007L13.4568 377.001L12.8 376.247ZM15 350.447L15.7399 349.774L15 350.447ZM0 344.047L0.178886 343.063L0.164383 343.061L0.149811 343.058L0 344.047ZM-13.2 342.047L-13.356 343.035L-13.3498 343.036L-13.2 342.047ZM-51.6 284.447L-52.5037 284.019L-52.5084 284.029L-52.5128 284.039L-51.6 284.447ZM-41.4 271.447L-42.0332 270.673L-41.4 271.447ZM-25.6 263.247L-25.3088 264.204L-25.296 264.2L-25.6 263.247ZM23.2 265.447L22.7967 266.362H22.7968L23.2 265.447ZM43.4 280.847L44.0866 281.574L44.7659 280.933L44.1719 280.211L43.4 280.847ZM25.4 297.847L24.6239 298.478L25.3033 299.314L26.0866 298.574L25.4 297.847ZM12.8 287.447L12.3245 288.327L12.8 287.447ZM-23 287.847L-22.4 288.647L-22.3956 288.644L-23 287.847ZM-24 311.647L-24.6369 312.418H-24.6369L-24 311.647ZM-9.2 317.247L-9.01845 316.264L-9.02621 316.262L-9.2 317.247ZM3.8 319.647L3.61845 320.63L3.62357 320.631L3.8 319.647ZM35 333.247L34.3001 333.961L34.3073 333.968L34.3146 333.975L35 333.247ZM41.6 378.447L40.6843 378.045L40.6797 378.056L41.6 378.447ZM31.4 392.447L32.0601 393.198L32.0616 393.197L31.4 392.447ZM15 401.447L14.6896 400.496L14.6838 400.498L15 401.447ZM-7.2 403.647C-19.0845 403.647 -29.1205 401.534 -37.3471 397.355L-38.2529 399.139C-29.6795 403.493 -19.3155 405.647 -7.2 405.647V403.647ZM-37.3414 397.358C-45.4965 393.149 -52.5284 387.628 -58.4438 380.793L-59.9562 382.101C-53.8716 389.133 -46.6368 394.811 -38.2586 399.136L-37.3414 397.358ZM-58.5051 382.166L-40.7051 364.966L-42.0949 363.528L-59.8949 380.728L-58.5051 382.166ZM-42.1593 364.898C-37.2833 370.586 -31.8471 374.942 -25.8472 377.941L-24.9528 376.153C-30.6863 373.286 -35.9167 369.108 -40.6407 363.596L-42.1593 364.898ZM-25.8392 377.945C-19.692 380.951 -12.9401 382.447 -5.6 382.447V380.447C-12.6599 380.447 -19.108 379.01 -24.9608 376.149L-25.8392 377.945ZM-5.6 382.447C2.6536 382.447 9.05743 380.691 13.4426 377.013L12.1574 375.481C8.27592 378.736 2.41308 380.447 -5.6 380.447V382.447ZM13.4568 377.001C17.8304 373.192 20 368.105 20 361.847H18C18 367.589 16.0363 372.102 12.1432 375.493L13.4568 377.001ZM20 361.847C20 356.978 18.603 352.924 15.7399 349.774L14.2601 351.12C16.7304 353.837 18 357.382 18 361.847H20ZM15.7399 349.774C12.8429 346.588 7.56402 344.406 0.178886 343.063L-0.178886 345.031C7.10265 346.355 11.8238 348.44 14.2601 351.12L15.7399 349.774ZM0.149811 343.058L-13.0502 341.058L-13.3498 343.036L-0.149803 345.036L0.149811 343.058ZM-13.044 341.059C-26.8617 338.878 -37.0878 334.451 -43.8533 327.88C-50.5936 321.333 -54 312.559 -54 301.447H-56C-56 313.002 -52.4398 322.328 -45.2467 329.314C-38.0788 336.277 -27.405 340.817 -13.356 343.035L-13.044 341.059ZM-54 301.447C-54 295.303 -52.8894 289.778 -50.6872 284.855L-52.5128 284.039C-54.8439 289.249 -56 295.058 -56 301.447H-54ZM-50.6963 284.875C-48.3606 279.944 -45.0537 275.729 -40.7668 272.221L-42.0332 270.673C-46.5462 274.366 -50.0394 278.816 -52.5037 284.019L-50.6963 284.875ZM-40.7668 272.221C-36.4799 268.714 -31.3332 266.037 -25.3088 264.204L-25.8912 262.29C-32.1335 264.19 -37.5201 266.981 -42.0332 270.673L-40.7668 272.221ZM-25.296 264.2C-19.1446 262.237 -12.1831 261.247 -4.39999 261.247V259.247C-12.3503 259.247 -19.522 260.258 -25.904 262.294L-25.296 264.2ZM-4.39999 261.247C6.02499 261.247 15.0824 262.963 22.7967 266.362L23.6033 264.532C15.5843 260.998 6.24168 259.247 -4.39999 259.247V261.247ZM22.7968 266.362C30.5168 269.764 37.1249 274.8 42.6281 281.483L44.1719 280.211C38.4751 273.294 31.6166 268.063 23.6033 264.532L22.7968 266.362ZM42.7134 280.12L24.7134 297.12L26.0866 298.574L44.0866 281.574L42.7134 280.12ZM26.1761 297.216C22.6249 292.846 18.3221 289.295 13.2755 286.567L12.3245 288.327C17.1446 290.932 21.2418 294.315 24.6239 298.478L26.1761 297.216ZM13.2755 286.567C8.15573 283.8 1.77976 282.447 -5.8 282.447V284.447C1.55358 284.447 7.57761 285.761 12.3245 288.327L13.2755 286.567ZM-5.8 282.447C-13.5027 282.447 -19.4901 283.929 -23.6044 287.05L-22.3956 288.644C-18.7766 285.898 -13.2973 284.447 -5.8 284.447V282.447ZM-23.6 287.047C-27.6165 290.059 -29.6 294.374 -29.6 299.847H-27.6C-27.6 294.92 -25.8502 291.235 -22.4 288.647L-23.6 287.047ZM-29.6 299.847C-29.6 305.371 -28.0056 309.635 -24.6369 312.418L-23.3631 310.876C-26.1277 308.592 -27.6 304.99 -27.6 299.847H-29.6ZM-24.6369 312.418C-21.3718 315.115 -16.235 317.021 -9.37378 318.232L-9.02621 316.262C-15.765 315.073 -20.4949 313.246 -23.3631 310.876L-24.6369 312.418ZM-9.38155 318.23L3.61845 320.63L3.98154 318.664L-9.01845 316.264L-9.38155 318.23ZM3.62357 320.631C17.6583 323.147 27.8349 327.625 34.3001 333.961L35.6999 332.533C28.8317 325.802 18.2084 321.214 3.97643 318.663L3.62357 320.631ZM34.3146 333.975C40.8672 340.142 44.2 348.851 44.2 360.247H46.2C46.2 348.443 42.7328 339.152 35.6854 332.519L34.3146 333.975ZM44.2 360.247C44.2 366.792 43.0226 372.719 40.6844 378.045L42.5157 378.849C44.9774 373.242 46.2 367.036 46.2 360.247H44.2ZM40.6797 378.056C38.4739 383.246 35.1648 387.792 30.7384 391.697L32.0616 393.197C36.7019 389.103 40.1927 384.315 42.5203 378.838L40.6797 378.056ZM30.7399 391.696C26.4578 395.459 21.1161 398.398 14.6896 400.496L15.3104 402.398C21.9506 400.229 27.5422 397.169 32.0601 393.198L30.7399 391.696ZM14.6838 400.498C8.4072 402.591 1.11776 403.647 -7.2 403.647V405.647C1.28225 405.647 8.7928 404.57 15.3162 402.396L14.6838 400.498ZM77.6844 395.447L76.9671 396.144L76.9772 396.154L76.9876 396.164L77.6844 395.447ZM70.8844 318.247H71.8844V317.247H70.8844V318.247ZM55.4844 318.247H54.4844V319.247H55.4844V318.247ZM55.4844 297.847V296.847H54.4844V297.847H55.4844ZM71.2844 295.247L70.498 294.629L70.4917 294.637L71.2844 295.247ZM73.4844 269.247V268.247H72.4844V269.247H73.4844ZM96.4844 269.247H97.4844V268.247H96.4844V269.247ZM96.4844 297.847H95.4844V298.847H96.4844V297.847ZM117.884 297.847H118.884V296.847H117.884V297.847ZM117.884 318.247V319.247H118.884V318.247H117.884ZM96.4844 318.247V317.247H95.4844V318.247H96.4844ZM96.4844 381.847H95.4844V382.847H96.4844V381.847ZM116.284 381.847H117.284V380.847H116.284V381.847ZM116.284 402.247V403.247H117.284V402.247H116.284ZM97.8844 401.247C89.2507 401.247 82.8032 399.026 78.3812 394.73L76.9876 396.164C81.8988 400.935 88.9181 403.247 97.8844 403.247V401.247ZM78.4017 394.75C74.1007 390.323 71.8844 384.004 71.8844 375.647H69.8844C69.8844 384.357 72.2014 391.238 76.9671 396.144L78.4017 394.75ZM71.8844 375.647V318.247H69.8844V375.647H71.8844ZM70.8844 317.247H55.4844V319.247H70.8844V317.247ZM56.4844 318.247V297.847H54.4844V318.247H56.4844ZM55.4844 298.847H63.4844V296.847H55.4844V298.847ZM63.4844 298.847C67.4325 298.847 70.4486 297.974 72.077 295.857L70.4917 294.637C69.4534 295.987 67.2696 296.847 63.4844 296.847V298.847ZM72.0707 295.865C73.7312 293.752 74.4844 290.761 74.4844 287.047H72.4844C72.4844 290.533 71.7709 293.009 70.4981 294.629L72.0707 295.865ZM74.4844 287.047V269.247H72.4844V287.047H74.4844ZM73.4844 270.247H96.4844V268.247H73.4844V270.247ZM95.4844 269.247V297.847H97.4844V269.247H95.4844ZM96.4844 298.847H117.884V296.847H96.4844V298.847ZM116.884 297.847V318.247H118.884V297.847H116.884ZM117.884 317.247H96.4844V319.247H117.884V317.247ZM95.4844 318.247V381.847H97.4844V318.247H95.4844ZM96.4844 382.847H116.284V380.847H96.4844V382.847ZM115.284 381.847V402.247H117.284V381.847H115.284ZM116.284 401.247H97.8844V403.247H116.284V401.247ZM156.508 400.847L156.111 401.765L156.119 401.768L156.508 400.847ZM141.308 389.847L140.55 390.5L140.555 390.506L140.56 390.511L141.308 389.847ZM131.708 372.647L130.759 372.963L130.761 372.969L131.708 372.647ZM131.708 327.247L130.761 326.925L131.708 327.247ZM141.308 310.247L140.56 309.583L140.559 309.584L141.308 310.247ZM156.508 299.247L156.119 298.326L156.111 298.329L156.508 299.247ZM196.908 299.247L197.297 298.326L196.908 299.247ZM212.108 310.247L211.35 310.9L211.36 310.911L211.37 310.922L212.108 310.247ZM221.908 327.247L222.855 326.925L221.908 327.247ZM221.908 372.647L222.855 372.969L222.857 372.963L221.908 372.647ZM212.108 389.847L211.36 389.183L211.355 389.189L211.35 389.195L212.108 389.847ZM196.908 400.847L197.297 401.768L196.908 400.847ZM192.708 377.847L193.438 378.53L192.708 377.847ZM192.708 322.247L193.438 321.564L192.708 322.247ZM160.908 322.247L161.638 322.93L160.908 322.247ZM176.708 403.647C169.355 403.647 162.757 402.4 156.897 399.926L156.119 401.768C162.259 404.361 169.127 405.647 176.708 405.647V403.647ZM156.904 399.929C151.172 397.454 146.225 393.874 142.055 389.183L140.56 390.511C144.924 395.42 150.11 399.174 156.111 401.765L156.904 399.929ZM142.066 389.195C138.025 384.502 134.885 378.884 132.655 372.325L130.761 372.969C133.064 379.743 136.324 385.592 140.55 390.5L142.066 389.195ZM132.656 372.331C130.429 365.649 129.308 358.158 129.308 349.847H127.308C127.308 358.337 128.453 366.046 130.759 372.963L132.656 372.331ZM129.308 349.847C129.308 341.536 130.429 334.114 132.655 327.569L130.761 326.925C128.453 333.713 127.308 341.358 127.308 349.847H129.308ZM132.655 327.569C134.884 321.012 138.022 315.465 142.056 310.91L140.559 309.584C136.327 314.362 133.065 320.149 130.761 326.925L132.655 327.569ZM142.055 310.911C146.225 306.22 151.172 302.64 156.904 300.165L156.111 298.329C150.11 300.921 144.924 304.674 140.56 309.583L142.055 310.911ZM156.897 300.168C162.757 297.694 169.355 296.447 176.708 296.447V294.447C169.127 294.447 162.259 295.733 156.119 298.326L156.897 300.168ZM176.708 296.447C184.06 296.447 190.659 297.694 196.519 300.168L197.297 298.326C191.157 295.733 184.289 294.447 176.708 294.447V296.447ZM196.519 300.168C202.381 302.643 207.32 306.22 211.35 310.9L212.866 309.595C208.629 304.674 203.435 300.917 197.297 298.326L196.519 300.168ZM211.37 310.922C215.533 315.476 218.734 321.018 220.961 327.569L222.855 326.925C220.549 320.143 217.216 314.352 212.846 309.572L211.37 310.922ZM220.961 327.569C223.186 334.114 224.308 341.536 224.308 349.847H226.308C226.308 341.358 225.163 333.713 222.855 326.925L220.961 327.569ZM224.308 349.847C224.308 358.158 223.187 365.649 220.959 372.331L222.857 372.963C225.162 366.046 226.308 358.337 226.308 349.847H224.308ZM220.961 372.325C218.733 378.878 215.53 384.492 211.36 389.183L212.855 390.511C217.219 385.602 220.549 379.75 222.855 372.969L220.961 372.325ZM211.35 389.195C207.32 393.874 202.381 397.451 196.519 399.926L197.297 401.768C203.435 399.177 208.629 395.42 212.866 390.5L211.35 389.195ZM196.519 399.926C190.659 402.4 184.06 403.647 176.708 403.647V405.647C184.289 405.647 191.157 404.361 197.297 401.768L196.519 399.926ZM176.708 385.047C183.724 385.047 189.345 382.906 193.438 378.53L191.978 377.164C188.338 381.055 183.291 383.047 176.708 383.047V385.047ZM193.438 378.53C197.538 374.147 199.508 367.796 199.508 359.647H197.508C197.508 367.498 195.61 373.28 191.978 377.164L193.438 378.53ZM199.508 359.647V340.247H197.508V359.647H199.508ZM199.508 340.247C199.508 332.226 197.536 325.944 193.438 321.564L191.978 322.93C195.613 326.816 197.508 332.534 197.508 340.247H199.508ZM193.438 321.564C189.345 317.188 183.724 315.047 176.708 315.047V317.047C183.291 317.047 188.338 319.039 191.978 322.93L193.438 321.564ZM176.708 315.047C169.818 315.047 164.267 317.192 160.178 321.564L161.638 322.93C165.282 319.035 170.264 317.047 176.708 317.047V315.047ZM160.178 321.564C156.08 325.944 154.108 332.226 154.108 340.247H156.108C156.108 332.534 158.003 326.816 161.638 322.93L160.178 321.564ZM154.108 340.247V359.647H156.108V340.247H154.108ZM154.108 359.647C154.108 367.796 156.077 374.147 160.178 378.53L161.638 377.164C158.005 373.28 156.108 367.498 156.108 359.647H154.108ZM160.178 378.53C164.267 382.902 169.818 385.047 176.708 385.047V383.047C170.264 383.047 165.282 381.059 161.638 377.164L160.178 378.53ZM244.003 402.247H243.003V403.247H244.003V402.247ZM244.003 297.847V296.847H243.003V297.847H244.003ZM269.603 297.847H270.603V296.847H269.603V297.847ZM269.603 319.447H268.603V320.447H269.603V319.447ZM270.603 319.447V320.447H271.393L271.576 319.679L270.603 319.447ZM273.603 311.447L272.727 310.965L272.722 310.973L272.718 310.981L273.603 311.447ZM279.203 304.447L278.542 303.697L279.203 304.447ZM287.203 299.647L286.852 298.711L286.845 298.713L286.839 298.716L287.203 299.647ZM303.803 297.847H304.803V296.847H303.803V297.847ZM303.803 322.047V323.047H304.803V322.047H303.803ZM276.203 325.847L275.704 324.98L276.203 325.847ZM269.603 402.247V403.247H270.603V402.247H269.603ZM245.003 402.247V297.847H243.003V402.247H245.003ZM244.003 298.847H269.603V296.847H244.003V298.847ZM268.603 297.847V319.447H270.603V297.847H268.603ZM269.603 320.447H270.603V318.447H269.603V320.447ZM271.576 319.679C272.223 316.96 273.194 314.372 274.488 311.913L272.718 310.981C271.346 313.589 270.316 316.334 269.63 319.215L271.576 319.679ZM274.479 311.929C275.891 309.363 277.685 307.12 279.865 305.197L278.542 303.697C276.188 305.774 274.249 308.198 272.727 310.965L274.479 311.929ZM279.865 305.197C282.036 303.281 284.6 301.74 287.568 300.578L286.839 298.716C283.673 299.955 280.903 301.613 278.542 303.697L279.865 305.197ZM287.554 300.583C290.621 299.433 294.165 298.847 298.203 298.847V296.847C293.974 296.847 290.185 297.461 286.852 298.711L287.554 300.583ZM298.203 298.847H303.803V296.847H298.203V298.847ZM302.803 297.847V322.047H304.803V297.847H302.803ZM303.803 321.047H295.803V323.047H303.803V321.047ZM295.803 321.047C287.07 321.047 280.328 322.318 275.704 324.98L276.702 326.714C280.878 324.309 287.203 323.047 295.803 323.047V321.047ZM275.704 324.98C270.949 327.718 268.603 332.212 268.603 338.247H270.603C270.603 332.816 272.657 329.042 276.702 326.714L275.704 324.98ZM268.603 338.247V402.247H270.603V338.247H268.603ZM269.603 401.247H244.003V403.247H269.603V401.247ZM384.081 297.847V296.847H383.358L383.132 297.534L384.081 297.847ZM408.081 297.847L409.028 298.17L409.479 296.847H408.081V297.847ZM366.081 420.847L367.023 421.183L367.028 421.17L366.081 420.847ZM361.481 430.447L360.643 429.902L360.627 429.926L360.613 429.951L361.481 430.447ZM355.681 437.247L355.074 436.453L355.681 437.247ZM320.881 442.247H319.881V443.247H320.881V442.247ZM320.881 421.847V420.847H319.881V421.847H320.881ZM339.681 421.847V422.847H340.405L340.631 422.159L339.681 421.847ZM344.481 407.247L345.431 407.559L345.536 407.241L345.427 406.924L344.481 407.247ZM307.081 297.847V296.847H305.683L306.135 298.171L307.081 297.847ZM332.481 297.847L333.431 297.534L333.204 296.847H332.481V297.847ZM350.681 353.047L351.65 352.798L351.641 352.765L351.631 352.734L350.681 353.047ZM357.481 379.447L356.513 379.697L356.706 380.447H357.481V379.447ZM358.681 379.447V380.447H359.445L359.646 379.71L358.681 379.447ZM365.881 353.047L364.932 352.734L364.923 352.759L364.916 352.784L365.881 353.047ZM384.081 298.847H408.081V296.847H384.081V298.847ZM407.135 297.524L365.135 420.524L367.028 421.17L409.028 298.17L407.135 297.524ZM365.14 420.511C363.826 424.188 362.325 427.314 360.643 429.902L362.32 430.992C364.104 428.246 365.67 424.973 367.023 421.183L365.14 420.511ZM360.613 429.951C359.071 432.65 357.222 434.81 355.074 436.453L356.289 438.041C358.674 436.217 360.692 433.844 362.349 430.943L360.613 429.951ZM355.074 436.453C352.931 438.091 350.327 439.305 347.239 440.077L347.724 442.017C351.036 441.189 353.898 439.87 356.289 438.041L355.074 436.453ZM347.239 440.077C344.137 440.852 340.489 441.247 336.281 441.247V443.247C340.607 443.247 344.425 442.842 347.724 442.017L347.239 440.077ZM336.281 441.247H320.881V443.247H336.281V441.247ZM321.881 442.247V421.847H319.881V442.247H321.881ZM320.881 422.847H339.681V420.847H320.881V422.847ZM340.631 422.159L345.431 407.559L343.531 406.935L338.731 421.535L340.631 422.159ZM345.427 406.924L308.027 297.524L306.135 298.171L343.535 407.571L345.427 406.924ZM307.081 298.847H332.481V296.847H307.081V298.847ZM331.532 298.16L349.732 353.36L351.631 352.734L333.431 297.534L331.532 298.16ZM349.713 353.297L356.513 379.697L358.45 379.198L351.65 352.798L349.713 353.297ZM357.481 380.447H358.681V378.447H357.481V380.447ZM359.646 379.71L366.846 353.31L364.916 352.784L357.716 379.184L359.646 379.71ZM366.831 353.36L385.031 298.16L383.132 297.534L364.932 352.734L366.831 353.36Z" fill="#FF2E2E"/>
</svg>
