<svg width="60" height="60" viewBox="0 0 60 60" fill="none" xmlns="http://www.w3.org/2000/svg">
<path d="M11.3142 59.0002H1.12681C2.06518 52.2661 5.35446 46.0596 10.4383 41.4807C15.7979 36.6533 22.7696 33.9795 30 33.9795C37.2304 33.9795 44.2021 36.6533 49.5617 41.4807C54.6455 46.0596 57.9348 52.2661 58.8732 59.0002H48.6568C47.7836 54.8878 45.5624 51.1714 42.3312 48.4427C38.8824 45.5303 34.5071 43.9321 29.9855 43.9321C25.4639 43.9321 21.0886 45.5303 17.6398 48.4427C14.4087 51.1714 12.1875 54.8878 11.3142 59.0002Z" fill="white" stroke="#FF2E2E" stroke-width="2"/>
<path d="M48.6858 1H58.8732C57.9348 7.73406 54.6455 13.9405 49.5617 18.5195C44.2021 23.3468 37.2304 26.0207 30 26.0207C22.7696 26.0207 15.7979 23.3468 10.4383 18.5195C5.35446 13.9405 2.06518 7.73406 1.12681 1H11.3432C12.2164 5.11237 14.4376 8.82872 17.6688 11.5574C21.1176 14.4699 25.4929 16.0681 30.0145 16.0681C34.5361 16.0681 38.9114 14.4699 42.3601 11.5574C45.5913 8.82872 47.8125 5.11237 48.6858 1Z" fill="white" stroke="#FF2E2E" stroke-width="2"/>
</svg>
