<svg width="60" height="60" viewBox="0 0 60 60" fill="none" xmlns="http://www.w3.org/2000/svg">
<path d="M58.9995 13.4954C58.9995 20.3963 53.4042 25.9909 46.5017 25.9909C39.5992 25.9909 34.0039 20.3963 34.0039 13.4954C34.0039 6.59456 39.5992 1 46.5017 1C53.4042 1 58.9995 6.59456 58.9995 13.4954Z" fill="white" stroke="#FF2E2E" stroke-width="2"/>
<path d="M25.9956 13.4954C25.9956 20.3963 20.4003 25.9909 13.4978 25.9909C6.59528 25.9909 1 20.3963 1 13.4954C1 6.59456 6.59528 1 13.4978 1C20.4003 1 25.9956 6.59456 25.9956 13.4954Z" fill="white" stroke="#FF2E2E" stroke-width="2"/>
<path d="M58.9995 46.5042C58.9995 53.4051 53.4042 58.9996 46.5017 58.9996C39.5992 58.9996 34.0039 53.4051 34.0039 46.5042C34.0039 39.6033 39.5992 34.0088 46.5017 34.0088C53.4042 34.0088 58.9995 39.6033 58.9995 46.5042Z" fill="white" stroke="#FF2E2E" stroke-width="2"/>
<path d="M25.9956 46.5042C25.9956 53.4051 20.4003 58.9996 13.4978 58.9996C6.59528 58.9996 1 53.4051 1 46.5042C1 39.6033 6.59528 34.0088 13.4978 34.0088C20.4003 34.0088 25.9956 39.6033 25.9956 46.5042Z" fill="white" stroke="#FF2E2E" stroke-width="2"/>
</svg>
