<svg width="60" height="60" viewBox="0 0 60 60" fill="none" xmlns="http://www.w3.org/2000/svg">
<path d="M49.0038 29.9995L49.0038 29.9979C48.9931 24.9624 46.9874 20.1364 43.4258 16.5767C39.8642 13.017 35.0371 11.0138 30.0016 11.0058H30C26.241 11.0058 22.5664 12.1206 19.441 14.2092C16.3156 16.2978 13.8798 19.2664 12.4418 22.7395C11.0037 26.2126 10.628 30.0341 11.3621 33.7208C12.0962 37.4075 13.9071 40.7936 16.5659 43.4509C19.2246 46.1083 22.6117 47.9174 26.2988 48.6495C29.9858 49.3816 33.8072 49.0039 37.2795 47.5639C40.7518 46.124 43.7191 43.6867 45.806 40.5602C47.893 37.4337 49.0058 33.7585 49.0038 29.9995ZM59 30V30.0003C59.0012 33.809 58.252 37.5805 56.795 41.0995C55.3381 44.6184 53.202 47.8158 50.5089 50.5089C47.8158 53.202 44.6184 55.3381 41.0995 56.795C37.5805 58.2519 33.809 59.0012 30.0003 59H30C24.2644 59 18.6575 57.2992 13.8885 54.1126C9.11945 50.9261 5.40245 46.3969 3.20751 41.0978C1.01257 35.7988 0.438268 29.9678 1.55724 24.3424C2.67621 18.7169 5.43819 13.5496 9.49392 9.49392C13.5496 5.43819 18.7169 2.67621 24.3424 1.55724C29.9678 0.43827 35.7988 1.01256 41.0978 3.2075C46.3969 5.40244 50.9261 9.11945 54.1126 13.8885C57.2992 18.6575 59 24.2644 59 30Z" fill="white" stroke="#FF2E2E" stroke-width="2"/>
</svg>
