<svg width="73" height="72" viewBox="0 0 73 72" fill="none" xmlns="http://www.w3.org/2000/svg">
<g clip-path="url(#clip0_455_955)">
<path d="M22.0177 28.0801C21.2754 28.0081 20.5525 28.1838 19.8267 28.2838C19.7641 28.2169 19.8195 28.1672 19.8455 28.1247C21.608 25.2397 24.0431 23.2741 27.417 22.5987C28.605 22.3568 29.8251 22.3144 31.0271 22.4734C31.5109 22.539 31.9487 22.3611 32.4073 22.2934C32.8458 22.2286 32.9322 22.2934 32.7119 22.6765C32.2799 23.4282 32.5405 24.1626 32.6622 24.9085C32.8753 26.2069 33.0983 27.5041 33.3311 28.8001C33.3735 29.0406 33.3246 29.2234 33.1511 29.3811C32.8199 29.6828 32.5355 30.0644 31.9803 29.8808C31.6203 29.7627 31.3439 29.6173 31.3323 29.1874C31.3271 29.0913 31.2916 28.9993 31.2308 28.9246C30.7434 28.3645 30.2646 27.7935 29.6742 27.3349C29.325 27.0634 29.1241 27.1009 28.8743 27.4731C28.5913 27.8943 28.4358 28.376 28.2536 28.8447C27.8216 29.9499 27.3968 31.0558 26.6934 32.0286C26.5537 32.2215 26.4162 32.3072 26.1627 32.2827C25.1999 32.1828 24.2309 32.1558 23.264 32.2021C23.2842 32.3353 23.3713 32.3317 23.4563 32.3425C24.4074 32.4591 25.3571 32.5815 26.3082 32.696C27.0577 32.7867 27.5322 33.573 27.2269 34.2562C26.6236 35.5737 25.9481 36.857 25.2037 38.1003C25.1095 38.2679 24.971 38.4064 24.8034 38.5006C24.4059 38.7214 24.0107 38.9466 23.6175 39.176C23.4606 39.2674 23.3576 39.248 23.2784 39.0738C23.0956 38.6801 23.027 38.243 23.0804 37.8123C23.1157 37.5308 23.5794 37.3083 23.9221 37.3839C24.3476 37.4797 24.542 37.3206 24.524 36.8799C24.5154 36.6726 24.6155 36.5106 24.7155 36.3493C25.0575 35.8006 25.4089 35.2578 25.7516 34.7091C25.8236 34.5918 25.959 34.465 25.8661 34.3218C25.7732 34.1785 25.6033 34.2217 25.4643 34.2339C24.8243 34.2901 24.1993 34.3376 23.5923 34.6306C22.5613 35.1274 21.4323 35.3298 20.3027 35.486C18.8353 35.6883 17.3442 35.6696 15.866 35.9684C15.9135 35.2988 15.9755 34.6537 15.8617 33.9387C15.6882 34.149 15.6767 34.3275 15.6565 34.4982C15.4081 36.6373 14.2259 38.186 12.5411 39.4114C11.5168 40.1483 10.3573 40.676 9.12898 40.9645C8.27002 41.174 7.65658 41.647 7.23178 42.4239C6.74866 43.3074 6.37354 44.2462 5.87314 45.1167C5.3497 46.0282 4.54546 46.6114 3.48346 46.777C2.94202 46.8613 2.85562 46.7511 3.01474 46.2255C3.08098 46.0095 3.16522 45.7935 3.24154 45.5818C3.41434 45.0937 3.63538 44.6818 4.27474 44.761C4.51594 44.7913 4.64626 44.617 4.73122 44.3874C5.22154 43.0626 5.7313 41.7457 6.2173 40.4194C6.25153 40.306 6.3122 40.2024 6.39431 40.117C6.47643 40.0317 6.57764 39.967 6.68962 39.9284C7.26562 39.7124 7.84162 39.5115 8.3989 39.2718C9.36226 38.8606 9.6373 38.4078 9.57034 37.3738C9.5149 36.5019 9.40546 35.6307 9.59122 34.761C9.96202 33.0178 11.1032 31.8961 12.5879 31.058C13.917 30.3092 15.3764 29.9247 16.8359 29.546C18.4357 29.1351 20.0346 28.7211 21.6325 28.304C21.7679 28.2687 21.8996 28.2219 22.0328 28.1809L22.0177 28.0801Z" fill="#03B1F0"/>
<path d="M36.6619 43.8535C38.3453 43.8535 39.6607 45.1495 39.6485 46.789C39.6355 48.45 38.3035 49.741 36.6159 49.7287C34.9476 49.7165 33.6538 48.4421 33.6523 46.8084C33.6509 45.1438 34.9707 43.8478 36.6619 43.8535ZM34.939 46.7587C34.9347 47.8099 35.6539 48.589 36.636 48.5962C37.6397 48.6034 38.3727 47.8467 38.3727 46.8027C38.3727 45.7774 37.621 44.9868 36.6447 44.9818C35.6496 44.9767 34.9433 45.714 34.939 46.7587Z" fill="#06B4F1"/>
<path d="M25.3924 44.7998C25.774 44.3052 26.1988 43.9841 26.7741 43.8833C27.9945 43.6673 29.0413 44.4269 29.104 45.6638C29.1609 46.7863 29.1306 47.9138 29.122 49.0392C29.122 49.415 28.8642 49.6281 28.492 49.6253C28.1197 49.6224 27.8656 49.4013 27.8505 49.001C27.8332 48.5229 27.8454 48.0434 27.8447 47.561C27.8447 47.142 27.8526 46.7222 27.8389 46.3039C27.813 45.4817 27.3789 45.0144 26.6545 45.0137C25.9101 45.0137 25.396 45.5177 25.378 46.3205C25.3585 47.1938 25.378 48.0686 25.3686 48.9427C25.365 49.3747 25.1397 49.6109 24.748 49.6202C24.3563 49.6296 24.0957 49.4042 24.0935 49.019C24.0834 47.5224 24.0834 46.0255 24.0935 44.5284C24.0903 44.3702 24.1492 44.2171 24.2575 44.1017C24.3659 43.9864 24.515 43.9181 24.6731 43.9113C24.8361 43.8989 24.9977 43.9486 25.1256 44.0503C25.2535 44.1521 25.3383 44.2984 25.3629 44.46C25.3787 44.5521 25.3794 44.64 25.3924 44.7998Z" fill="#06B4F1"/>
<path d="M42.393 44.7801C42.9748 44.0212 43.6962 43.7253 44.5977 43.906C45.4437 44.0759 46.055 44.7419 46.0802 45.6109C46.1126 46.7593 46.0974 47.9092 46.0917 49.0583C46.0917 49.4068 45.8375 49.6401 45.4991 49.6494C45.4181 49.6537 45.337 49.6419 45.2606 49.6148C45.1841 49.5876 45.1138 49.5457 45.0536 49.4913C44.9934 49.4369 44.9445 49.3712 44.9097 49.2979C44.875 49.2245 44.8551 49.1451 44.8511 49.0641C44.8266 48.6105 44.8425 48.1547 44.8382 47.6961C44.8331 47.1697 44.8533 46.6413 44.8108 46.1178C44.7554 45.4353 44.3529 45.0587 43.7085 45.0169C43.0641 44.9752 42.5759 45.3417 42.4125 45.9724C42.3088 46.3741 42.3664 46.7824 42.3592 47.1877C42.3491 47.7637 42.3592 48.3397 42.3556 48.9114C42.3556 49.3643 42.0892 49.6537 41.7004 49.6458C41.3282 49.6393 41.074 49.3578 41.0726 48.9193C41.0675 47.5189 41.0726 46.1178 41.0726 44.7174C41.0726 44.2084 41.2943 43.9254 41.6896 43.9103C42.0849 43.8952 42.3225 44.1616 42.3599 44.667C42.3677 44.7056 42.3788 44.7434 42.393 44.7801Z" fill="#05B3F1"/>
<path d="M21.0568 48.8348C20.9423 48.8535 20.9084 48.9399 20.8573 49.0004C20.2532 49.7204 19.3655 49.8306 18.5274 49.5613C17.78 49.3208 17.3351 48.5929 17.3286 47.6893C17.3214 46.659 17.3243 45.6279 17.3286 44.5976C17.3286 44.1656 17.5612 43.9194 17.9428 43.9151C18.338 43.9107 18.5951 44.1692 18.6001 44.6048C18.608 45.3716 18.6001 46.1384 18.6001 46.9088C18.6001 47.0528 18.6001 47.1968 18.6102 47.3408C18.6606 48.1062 19.0969 48.5367 19.8133 48.5331C20.5297 48.5295 21.0373 48.0551 21.0611 47.3192C21.0884 46.4329 21.074 45.5459 21.0726 44.6552C21.0726 44.3075 21.195 44.0389 21.5442 43.9352C21.9762 43.8063 22.352 44.1066 22.3542 44.5832C22.36 46.0333 22.36 47.4834 22.3542 48.9335C22.3542 49.3532 22.113 49.629 21.7523 49.6455C21.3916 49.6621 21.1345 49.413 21.0748 48.9975C21.0697 48.9471 21.064 48.8924 21.0568 48.8348Z" fill="#06B4F1"/>
<path d="M0.838847 38.2838C0.755941 37.9215 0.776904 37.5432 0.899327 37.1923C1.51421 35.267 2.93477 34.2878 4.81757 33.8501C5.50013 33.6917 6.19349 33.678 6.88829 33.6953C7.77029 33.7169 8.63429 33.6528 9.44141 33.2518C9.51773 33.2136 9.60917 33.1646 9.67541 33.2309C9.75677 33.3122 9.65597 33.3814 9.61493 33.4469C9.39645 33.7616 9.22023 34.1036 9.09077 34.4642C9.02237 34.6651 8.84885 34.7198 8.69477 34.7998C7.13381 35.6076 5.46773 36.1116 3.76133 36.5098C3.16589 36.6494 2.58269 36.8215 2.04125 37.1145C1.5326 37.3754 1.11378 37.7827 0.838847 38.2838Z" fill="#05B3F1"/>
<path d="M28.8818 32.8207C28.6313 32.8423 28.3713 32.8286 28.133 32.8927C27.6744 33.018 27.3655 32.7919 27.053 32.5241C26.963 32.4477 26.9753 32.3966 27.0242 32.3167C27.1178 32.1633 27.2107 32.01 27.2985 31.8537C27.7226 31.1021 27.7226 31.0999 28.5881 31.2057C29.1108 31.2691 29.6328 31.3389 30.1548 31.4066C30.7149 31.4786 31.152 32.1857 30.9252 32.7062C30.3912 33.9508 29.755 35.1489 29.0229 36.2882C28.6982 36.7872 28.0711 36.9463 27.5613 37.2242C27.4526 37.284 27.3943 37.1623 27.3554 37.0766C27.1975 36.7382 27.1367 36.3625 27.1797 35.9916C27.2129 35.7302 27.5973 35.525 27.9177 35.5812C28.3425 35.6532 28.4678 35.5531 28.4729 35.1132C28.4729 34.9339 28.5607 34.7921 28.6485 34.6509C28.9531 34.1635 29.267 33.6825 29.5687 33.1937C29.7631 32.8797 29.7213 32.8128 29.3484 32.8063C29.2649 32.8063 29.1813 32.8099 29.0971 32.8135C29.0251 32.8135 28.9531 32.8229 28.8811 32.8279L28.8818 32.8207Z" fill="#06B4F1"/>
<path d="M48.7068 45.1826C49.249 44.4439 49.9308 43.9586 50.8755 43.9643C51.543 43.9618 52.1844 44.2235 52.6596 44.6922C53.7259 45.7161 53.8116 47.5996 52.8396 48.7206C52.4796 49.1397 52.0339 49.4471 51.4918 49.5623C50.9759 49.6858 50.4351 49.655 49.9366 49.4738C49.4189 49.2758 49.0488 48.8927 48.6233 48.5075C48.6233 48.7178 48.6233 48.928 48.6233 49.1382C48.6233 49.3326 48.6413 49.5602 48.3591 49.5494C48.115 49.54 48.1107 49.3377 48.1114 49.1483C48.1114 48.5255 48.1114 47.9027 48.1114 47.2763C48.1114 45.8622 48.1114 44.4484 48.1114 43.0348C48.1114 42.9391 48.1114 42.8433 48.115 42.7468C48.1251 42.5949 48.2079 42.4927 48.3612 42.4912C48.5369 42.4912 48.6089 42.5985 48.6096 42.772C48.6096 43.4308 48.6175 44.0896 48.6219 44.7484C48.6219 44.8766 48.6219 45.0047 48.6219 45.1329L48.7068 45.1826ZM52.9505 46.8004C52.9419 45.4324 52.0426 44.4539 50.802 44.4619C49.5615 44.4698 48.5967 45.5044 48.601 46.8227C48.6053 48.141 49.591 49.1591 50.833 49.1577C52.0865 49.1562 52.9591 48.1864 52.9505 46.8004Z" fill="#0AB8F2"/>
<path d="M58.82 48.6424C57.9107 49.7296 56.6788 49.7944 55.7615 49.456C55.0048 49.1759 54.6318 48.6136 54.6469 47.872C54.6613 47.1635 55.0717 46.6213 55.814 46.36C56.7061 46.041 57.614 46.1303 58.5068 46.3276C58.7768 46.3866 58.8323 46.3377 58.8244 46.0741C58.7963 45.1648 58.226 44.5715 57.2864 44.5031C56.7103 44.4614 56.1327 44.5628 55.6052 44.7983C55.4353 44.8703 55.2452 44.9661 55.1516 44.7263C55.058 44.4865 55.2575 44.4181 55.4274 44.3483C56.1474 44.0517 56.8955 43.9249 57.6752 44.0646C58.6501 44.2396 59.2888 44.9286 59.3147 45.9165C59.3442 47.0173 59.324 48.1204 59.3269 49.222C59.3269 49.3941 59.2909 49.5496 59.0908 49.5589C58.8683 49.5697 58.8172 49.4106 58.82 49.2213C58.82 49.0513 58.82 48.8879 58.82 48.6424ZM57.38 46.6314C56.745 46.6192 56.3144 46.6314 55.9134 46.8229C55.4814 47.0274 55.2143 47.3543 55.1977 47.8511C55.1812 48.3601 55.4137 48.7309 55.8601 48.9491C56.6118 49.3156 57.3512 49.2213 58.0525 48.8116C58.7106 48.4278 58.8863 47.8101 58.8388 47.0886C58.8265 46.9072 58.7668 46.8388 58.5983 46.8006C58.1238 46.7056 57.6522 46.6321 57.3743 46.6314H57.38Z" fill="#0AB8F2"/>
<path d="M69.6699 46.8846C69.2494 47.2965 68.8505 47.6925 68.4459 48.0813C68.3379 48.1849 68.322 48.3037 68.3242 48.4413C68.3242 48.717 68.3242 48.9928 68.3242 49.2678C68.3242 49.4392 68.2522 49.545 68.0693 49.5414C67.8864 49.5378 67.8166 49.4305 67.8144 49.2621C67.8144 49.2138 67.8144 49.1663 67.8144 49.1181C67.8144 47.0689 67.8144 45.0196 67.8144 42.97C67.8103 42.8862 67.8127 42.8022 67.8216 42.7187C67.8254 42.6576 67.8527 42.6003 67.8978 42.5589C67.9429 42.5176 68.0024 42.4953 68.0636 42.4969C68.0968 42.4941 68.1304 42.4985 68.1617 42.51C68.1931 42.5215 68.2216 42.5397 68.2451 42.5634C68.2687 42.5871 68.2867 42.6157 68.298 42.6471C68.3093 42.6786 68.3136 42.7121 68.3105 42.7453C68.3156 42.9491 68.3235 43.1521 68.3235 43.3559C68.3235 44.6145 68.3235 45.873 68.3235 47.1316V47.4858C68.4948 47.4664 68.5496 47.3476 68.6273 47.2698C69.5547 46.3161 70.4796 45.3601 71.4022 44.4021C71.4692 44.3301 71.5376 44.266 71.6031 44.1961C71.7226 44.0673 71.8673 43.9996 72.0099 44.1285C72.1647 44.2689 72.0725 44.4085 71.9537 44.5295C71.5836 44.9053 71.2121 45.2797 70.8442 45.657C70.5764 45.9313 70.13 46.1898 70.0976 46.4908C70.0616 46.8241 70.5195 47.1136 70.7614 47.4225C71.1833 47.9596 71.6175 48.4866 72.0495 49.0158C72.169 49.1598 72.2964 49.3398 72.1308 49.486C71.9494 49.6465 71.7852 49.5069 71.652 49.342C70.994 48.5161 70.3294 47.6989 69.6699 46.8846Z" fill="#0AB8F2"/>
<path d="M61.6819 44.9427C62.2738 44.2004 63.0118 43.8843 63.9355 43.9808C64.986 44.0895 65.7463 44.8304 65.7881 45.8866C65.832 46.999 65.8047 48.1143 65.809 49.2281C65.809 49.4024 65.7694 49.5435 65.5563 49.5399C65.3244 49.5356 65.2956 49.3764 65.2956 49.1928C65.2956 48.2703 65.2956 47.3477 65.2956 46.4252C65.3006 46.2457 65.2914 46.0661 65.2683 45.888C65.1142 44.9369 64.4395 44.3919 63.4827 44.4351C62.5042 44.479 61.728 45.2213 61.6942 46.2027C61.6632 47.112 61.6848 48.0228 61.6834 48.9336C61.6834 49.0294 61.6834 49.1252 61.6834 49.2216C61.6834 49.393 61.6423 49.5356 61.4314 49.5406C61.2204 49.5456 61.1635 49.4182 61.1621 49.2389C61.1621 49.1907 61.1621 49.1432 61.1621 49.0949V44.5301C61.1621 44.4704 61.1621 44.4106 61.1621 44.3508C61.1715 44.1924 61.224 44.0628 61.4098 44.0628C61.6121 44.0628 61.674 44.1989 61.6791 44.3717C61.6863 44.5604 61.6819 44.7512 61.6819 44.9427Z" fill="#0AB8F2"/>
<path d="M32.1529 46.7794C32.1529 47.4994 32.1529 48.2151 32.1529 48.933C32.1529 49.3801 31.947 49.6083 31.5539 49.6242C31.1442 49.64 30.8807 49.4082 30.8771 48.9632C30.8665 47.504 30.8665 46.0443 30.8771 44.5842C30.8807 44.1673 31.155 43.9102 31.5207 43.9131C31.9045 43.9131 32.1486 44.1853 32.1515 44.6259C32.1565 45.3438 32.1529 46.0616 32.1529 46.7794Z" fill="#06B4F1"/>
<path d="M7.86051 44.4351C7.71651 44.4546 7.63371 44.3329 7.71651 44.0838C7.79571 43.8462 7.88715 43.6122 7.96563 43.3739C8.09163 42.9887 8.29683 42.7259 8.75763 42.7489C8.99883 42.7611 9.15867 42.6215 9.20403 42.3716C9.34083 41.6135 9.75915 41.1224 10.5231 40.9223C10.7607 40.8603 10.9738 40.7063 11.1991 40.5947C11.2611 40.5637 11.3251 40.5032 11.395 40.5587C11.4648 40.6141 11.4159 40.689 11.3849 40.7495C10.9529 41.6034 10.5929 42.5063 10.0169 43.2651C9.52587 43.9059 8.85267 44.3703 7.86051 44.4351Z" fill="#06B4F1"/>
</g>
<defs>
<clipPath id="clip0_455_955">
<rect width="72" height="72" fill="white" transform="translate(0.5)"/>
</clipPath>
</defs>
</svg>
