<svg width="37" height="38" viewBox="0 0 37 38" fill="none" xmlns="http://www.w3.org/2000/svg">
<g clip-path="url(#clip0_806_1634)">
<path d="M35.3186 0.72168H1.68268C0.876329 0.72168 0.222656 1.37535 0.222656 2.1817V35.8177C0.222656 36.624 0.876329 37.2777 1.68268 37.2777H35.3186C36.125 37.2777 36.7787 36.624 36.7787 35.8177V2.1817C36.7787 1.37535 36.125 0.72168 35.3186 0.72168Z" fill="#5C2682"/>
<path d="M7.28376 15.459V16.8095H10.2711V18.0531H7.28376V20.477H5.90625V14.2158H10.6733V15.459H7.28376Z" fill="white"/>
<path d="M16.7735 19.9314C16.598 20.0702 16.4075 20.1887 16.2055 20.2848C15.9903 20.3859 15.7636 20.4605 15.5303 20.5068C15.2593 20.5601 14.9836 20.5856 14.7074 20.583C14.2685 20.587 13.8333 20.5018 13.4283 20.3325C13.0468 20.1736 12.7003 19.9412 12.4086 19.6484C12.1195 19.3547 11.8915 19.0066 11.7378 18.6242C11.5754 18.2237 11.4933 17.7951 11.4962 17.3629V17.3451C11.4929 16.914 11.575 16.4864 11.7378 16.0871C11.8935 15.7046 12.1212 15.3556 12.4086 15.0589C12.701 14.7594 13.0509 14.5221 13.4372 14.3611C13.8573 14.1879 14.3082 14.1021 14.7625 14.1088C15.031 14.1067 15.299 14.1307 15.5629 14.1802C15.7881 14.2233 16.0084 14.2893 16.2203 14.377C16.4128 14.4582 16.5958 14.5602 16.7661 14.6811C16.9316 14.7994 17.0872 14.9311 17.2312 15.0748L16.3535 16.0853C16.1294 15.8793 15.8781 15.705 15.6065 15.5673C15.3401 15.4394 15.0477 15.3751 14.7522 15.3797C14.5011 15.3774 14.2525 15.4292 14.0233 15.5318C13.8038 15.6301 13.6073 15.7733 13.4465 15.9521C13.2836 16.1341 13.1562 16.3449 13.0709 16.5737C12.9803 16.8153 12.9347 17.0715 12.9366 17.3296V17.3474C12.935 17.6069 12.9805 17.8645 13.0709 18.1077C13.1549 18.3373 13.2803 18.5495 13.4409 18.7338C13.6047 18.9191 13.8065 19.0669 14.0326 19.1672C14.2587 19.2675 14.5038 19.3179 14.7511 19.315C15.109 19.315 15.4117 19.2494 15.6591 19.1182C15.9273 18.9722 16.1753 18.7919 16.3968 18.5817L17.2734 19.4671C17.1187 19.6343 16.9516 19.7895 16.7735 19.9314Z" fill="white"/>
<path d="M23.2764 20.477V16.3892L21.5141 19.0636H21.4771L19.7329 16.4162V20.477H18.375V14.2158H19.8594L21.5052 16.8635L23.151 14.2158H24.6358V20.477H23.2764Z" fill="white"/>
<path d="M31.2865 19.5109C31.1757 19.7262 31.0131 19.9106 30.8133 20.0474C30.5883 20.1991 30.3375 20.3083 30.0733 20.3697C29.7581 20.4442 29.4351 20.4803 29.1113 20.477H26.1387V14.2158H29.0406C29.6831 14.2158 30.1875 14.362 30.5535 14.6543C30.9196 14.9466 31.1027 15.3401 31.103 15.8349V15.8546C31.1055 16.0151 31.0829 16.175 31.036 16.3285C30.9943 16.4595 30.9345 16.5841 30.8584 16.6985C30.7859 16.807 30.6988 16.9049 30.5994 16.9893C30.5026 17.0723 30.3968 17.1443 30.2842 17.2039C30.646 17.3413 30.9309 17.5277 31.1389 17.763C31.3468 17.9983 31.4506 18.3242 31.4504 18.7406V18.7583C31.4567 19.0187 31.4005 19.2768 31.2865 19.5109ZM29.7432 16.0673C29.7432 15.8586 29.6658 15.6992 29.5109 15.5889C29.3559 15.4786 29.1323 15.4235 28.84 15.4235H27.4803V16.747H28.7494C29.0535 16.747 29.295 16.6948 29.4739 16.5905C29.6527 16.4861 29.7421 16.3177 29.7421 16.0851L29.7432 16.0673ZM30.0921 18.5718C30.0954 18.4755 30.075 18.3799 30.0329 18.2933C29.9908 18.2066 29.9282 18.1315 29.8505 18.0746C29.6894 17.9525 29.4304 17.8908 29.0735 17.8896H27.4825V19.2671H29.1194C29.4235 19.2671 29.6621 19.2119 29.835 19.1017C30.0079 18.9914 30.0942 18.82 30.094 18.5874L30.0921 18.5718Z" fill="white"/>
<path d="M31.3469 24.4893V27.5551H5.76953V25.9426C5.76948 25.7517 5.80704 25.5627 5.88006 25.3864C5.95308 25.21 6.06014 25.0498 6.1951 24.9148C6.33007 24.7799 6.49031 24.6728 6.66666 24.5998C6.84301 24.5268 7.03202 24.4892 7.22289 24.4893H31.3469Z" fill="#FAB613"/>
<path d="M5.76953 28.5479H31.3469V31.6137H7.22289C7.03199 31.6137 6.84295 31.5761 6.66657 31.5031C6.4902 31.4301 6.32994 31.323 6.19497 31.188C6.06 31.053 5.95296 30.8927 5.87996 30.7163C5.80696 30.5399 5.76943 30.3508 5.76953 30.1599V28.5479Z" fill="#FAB613"/>
</g>
<defs>
<clipPath id="clip0_806_1634">
<rect width="37" height="37" fill="white" transform="translate(0 0.5)"/>
</clipPath>
</defs>
</svg>
