<svg width="489" height="81" viewBox="0 0 489 81" fill="none" xmlns="http://www.w3.org/2000/svg">
<path opacity="0.5" d="M30.3 58.3L28.5087 59.1895L28.5397 59.2519L28.5749 59.3119L30.3 58.3ZM19.5 36.55L21.2913 35.6605L20.7399 34.55H19.5V36.55ZM19.05 36.55V34.55H17.05V36.55H19.05ZM19.05 112V114H21.05V112H19.05ZM0.3 112H-1.7V114H0.3V112ZM0.3 7.3V5.3H-1.7V7.3H0.3ZM22.05 7.3L23.7751 6.28806L23.1955 5.3H22.05V7.3ZM53.55 61L55.3413 60.1105L55.3103 60.0481L55.2751 59.9881L53.55 61ZM64.35 82.75L62.5587 83.6395L63.1101 84.75H64.35V82.75ZM64.8 82.75V84.75H66.8V82.75H64.8ZM64.8 7.3V5.3H62.8V7.3H64.8ZM83.55 7.3H85.55V5.3H83.55V7.3ZM83.55 112V114H85.55V112H83.55ZM61.8 112L60.0749 113.012L60.6545 114H61.8V112ZM32.0913 57.4105L21.2913 35.6605L17.7087 37.4395L28.5087 59.1895L32.0913 57.4105ZM19.5 34.55H19.05V38.55H19.5V34.55ZM17.05 36.55V112H21.05V36.55H17.05ZM19.05 110H0.3V114H19.05V110ZM2.3 112V7.3H-1.7V112H2.3ZM0.3 9.3H22.05V5.3H0.3V9.3ZM20.3249 8.31193L51.8249 62.0119L55.2751 59.9881L23.7751 6.28806L20.3249 8.31193ZM51.7587 61.8895L62.5587 83.6395L66.1413 81.8605L55.3413 60.1105L51.7587 61.8895ZM64.35 84.75H64.8V80.75H64.35V84.75ZM66.8 82.75V7.3H62.8V82.75H66.8ZM64.8 9.3H83.55V5.3H64.8V9.3ZM81.55 7.3V112H85.55V7.3H81.55ZM83.55 110H61.8V114H83.55V110ZM63.5251 110.988L32.0251 57.2881L28.5749 59.3119L60.0749 113.012L63.5251 110.988ZM151.463 108.4L150.02 109.785L150.048 109.815L150.077 109.843L151.463 108.4ZM146.963 98.5L148.941 98.2104L148.691 96.5H146.963V98.5ZM146.062 98.5V96.5H144.508L144.124 98.006L146.062 98.5ZM138.113 110.05L139.173 111.746L139.188 111.737L139.202 111.727L138.113 110.05ZM104.812 107.5L106.21 106.069L104.812 107.5ZM107.062 72.7L108.178 74.3597L108.188 74.3531L108.198 74.3464L107.062 72.7ZM145.163 66.7V68.7H147.163V66.7H145.163ZM141.712 50.8L143.156 49.4162L141.712 50.8ZM119.663 50.2L120.814 51.8356L120.825 51.8275L119.663 50.2ZM112.762 57.1L111.429 58.5905L113.104 60.0895L114.398 58.251L112.762 57.1ZM101.363 46.9L99.6814 45.8166L98.7564 47.2519L100.029 48.3905L101.363 46.9ZM112.912 36.1L113.893 37.8431L113.907 37.8355L113.92 37.8276L112.912 36.1ZM164.363 96.7H162.363V98.7H164.363V96.7ZM172.163 96.7H174.163V94.7H172.163V96.7ZM172.163 112V114H174.163V112H172.163ZM145.163 78.25H147.163V76.25H145.163V78.25ZM120.863 97.6L119.613 99.1617L119.656 99.1958L119.7 99.2275L120.863 97.6ZM161.513 110C157.713 110 154.899 108.927 152.848 106.957L150.077 109.843C153.026 112.673 156.912 114 161.513 114V110ZM152.905 107.015C150.847 104.87 149.493 101.981 148.941 98.2104L144.984 98.7896C145.632 103.219 147.278 106.93 150.02 109.785L152.905 107.015ZM146.963 96.5H146.062V100.5H146.963V96.5ZM144.124 98.006C142.935 102.674 140.556 106.076 137.023 108.373L139.202 111.727C143.669 108.824 146.59 104.526 148.001 98.994L144.124 98.006ZM137.053 108.354C133.441 110.611 128.881 111.8 123.262 111.8V115.8C129.444 115.8 134.784 114.489 139.173 111.746L137.053 108.354ZM123.262 111.8C115.607 111.8 110.026 109.796 106.21 106.069L103.415 108.931C108.199 113.604 114.918 115.8 123.262 115.8V111.8ZM106.21 106.069C102.359 102.308 100.363 97.2575 100.363 90.7H96.3625C96.3625 98.1425 98.666 104.292 103.415 108.931L106.21 106.069ZM100.363 90.7C100.363 83.1432 103.026 77.8245 108.178 74.3597L105.947 71.0403C99.4993 75.3755 96.3625 82.0568 96.3625 90.7H100.363ZM108.198 74.3464C113.532 70.6677 121.321 68.7 131.812 68.7V64.7C120.904 64.7 112.193 66.7323 105.927 71.0536L108.198 74.3464ZM131.812 68.7H145.163V64.7H131.812V68.7ZM147.163 66.7V61H143.163V66.7H147.163ZM147.163 61C147.163 56.2561 145.917 52.2964 143.156 49.4162L140.269 52.1838C142.108 54.1036 143.163 56.9439 143.163 61H147.163ZM143.156 49.4162C140.318 46.4547 135.971 45.2 130.613 45.2V49.2C135.454 49.2 138.507 50.3453 140.269 52.1838L143.156 49.4162ZM130.613 45.2C125.823 45.2 121.73 46.2654 118.5 48.5725L120.825 51.8275C123.195 50.1346 126.402 49.2 130.613 49.2V45.2ZM118.512 48.5644C115.623 50.5968 113.159 53.0608 111.127 55.949L114.398 58.251C116.166 55.7392 118.302 53.6032 120.813 51.8356L118.512 48.5644ZM114.096 55.6095L102.696 45.4095L100.029 48.3905L111.429 58.5905L114.096 55.6095ZM103.044 47.9834C105.762 43.7651 109.368 40.3883 113.893 37.8431L111.932 34.3568C106.857 37.2117 102.763 41.0349 99.6814 45.8166L103.044 47.9834ZM113.92 37.8276C118.312 35.2657 124.275 33.9 131.962 33.9V29.9C123.85 29.9 117.113 31.3343 111.905 34.3724L113.92 37.8276ZM131.962 33.9C142.293 33.9 149.796 36.2421 154.797 40.6068L157.428 37.5931C151.429 32.3579 142.832 29.9 131.962 29.9V33.9ZM154.797 40.6068C159.763 44.9406 162.363 51.2317 162.363 59.8H166.363C166.363 50.3683 163.462 42.8594 157.428 37.5931L154.797 40.6068ZM162.363 59.8V96.7H166.363V59.8H162.363ZM164.363 98.7H172.163V94.7H164.363V98.7ZM170.163 96.7V112H174.163V96.7H170.163ZM172.163 110H161.513V114H172.163V110ZM129.712 101.85C134.311 101.85 138.351 100.831 141.733 98.6896L139.592 95.3104C136.974 96.9685 133.714 97.85 129.712 97.85V101.85ZM141.733 98.6896C145.34 96.4047 147.163 92.9506 147.163 88.6H143.163C143.163 91.6494 141.985 93.7953 139.592 95.3104L141.733 98.6896ZM147.163 88.6V78.25H143.163V88.6H147.163ZM145.163 76.25H132.863V80.25H145.163V76.25ZM132.863 76.25C127.713 76.25 123.508 77.0622 120.534 78.9655C117.408 80.9661 115.863 84.0317 115.863 87.85H119.863C119.863 85.2683 120.817 83.5339 122.691 82.3345C124.717 81.0378 128.012 80.25 132.863 80.25V76.25ZM115.863 87.85V90.4H119.863V87.85H115.863ZM115.863 90.4C115.863 94.0414 117.023 97.0893 119.613 99.1617L122.112 96.0383C120.702 94.9107 119.863 93.1586 119.863 90.4H115.863ZM119.7 99.2275C122.265 101.06 125.683 101.85 129.712 101.85V97.85C126.142 97.85 123.66 97.1403 122.025 95.9725L119.7 99.2275ZM193.416 106.9L191.981 108.294L192.001 108.314L192.022 108.335L193.416 106.9ZM188.316 49H190.316V47H188.316V49ZM176.766 49H174.766V51H176.766V49ZM176.766 33.7V31.7H174.766V33.7H176.766ZM188.616 31.75L187.043 30.5144L187.037 30.5224L187.03 30.5306L188.616 31.75ZM190.266 12.25V10.25H188.266V12.25H190.266ZM207.516 12.25H209.516V10.25H207.516V12.25ZM207.516 33.7H205.516V35.7H207.516V33.7ZM223.566 33.7H225.566V31.7H223.566V33.7ZM223.566 49V51H225.566V49H223.566ZM207.516 49V47H205.516V49H207.516ZM207.516 96.7H205.516V98.7H207.516V96.7ZM222.366 96.7H224.366V94.7H222.366V96.7ZM222.366 112V114H224.366V112H222.366ZM208.566 110C202.298 110 197.82 108.39 194.809 105.465L192.022 108.335C196.011 112.21 201.633 114 208.566 114V110ZM194.85 105.506C191.915 102.485 190.316 98.0974 190.316 92.05H186.316C186.316 98.8026 188.116 104.315 191.981 108.294L194.85 105.506ZM190.316 92.05V49H186.316V92.05H190.316ZM188.316 47H176.766V51H188.316V47ZM178.766 49V33.7H174.766V49H178.766ZM176.766 35.7H182.766V31.7H176.766V35.7ZM182.766 35.7C185.829 35.7 188.611 35.0365 190.201 32.9694L187.03 30.5306C186.62 31.0635 185.503 31.7 182.766 31.7V35.7ZM190.188 32.9856C191.676 31.0923 192.266 28.5279 192.266 25.6H188.266C188.266 28.0721 187.755 29.6077 187.043 30.5144L190.188 32.9856ZM192.266 25.6V12.25H188.266V25.6H192.266ZM190.266 14.25H207.516V10.25H190.266V14.25ZM205.516 12.25V33.7H209.516V12.25H205.516ZM207.516 35.7H223.566V31.7H207.516V35.7ZM221.566 33.7V49H225.566V33.7H221.566ZM223.566 47H207.516V51H223.566V47ZM205.516 49V96.7H209.516V49H205.516ZM207.516 98.7H222.366V94.7H207.516V98.7ZM220.366 96.7V112H224.366V96.7H220.366ZM222.366 110H208.566V114H222.366V110ZM238.119 19.6L236.665 20.9732L236.685 20.994L236.705 21.0142L238.119 19.6ZM238.119 2.79999L236.705 1.38578L236.685 1.40598L236.665 1.42675L238.119 2.79999ZM255.369 19.6L253.955 18.1858V18.1858L255.369 19.6ZM237.219 33.7V31.7H235.219V33.7H237.219ZM256.419 33.7H258.419V31.7H256.419V33.7ZM256.419 112V114H258.419V112H256.419ZM237.219 112H235.219V114H237.219V112ZM246.819 20.3C243.056 20.3 240.792 19.4444 239.533 18.1858L236.705 21.0142C239.046 23.3556 242.583 24.3 246.819 24.3V20.3ZM239.573 18.2267C238.27 16.8474 237.569 15.0616 237.569 12.7H233.569C233.569 15.9384 234.568 18.7526 236.665 20.9732L239.573 18.2267ZM237.569 12.7V9.69999H233.569V12.7H237.569ZM237.569 9.69999C237.569 7.33844 238.27 5.5526 239.573 4.17324L236.665 1.42675C234.568 3.64738 233.569 6.46155 233.569 9.69999H237.569ZM239.533 4.21421C240.792 2.9556 243.056 2.09999 246.819 2.09999V-1.90001C242.583 -1.90001 239.046 -0.955612 236.705 1.38578L239.533 4.21421ZM246.819 2.09999C250.465 2.09999 252.688 2.9477 253.955 4.21421L256.783 1.38578C254.45 -0.947712 250.973 -1.90001 246.819 -1.90001V2.09999ZM253.955 4.21421C255.341 5.59986 256.069 7.37218 256.069 9.69999H260.069C260.069 6.42781 258.998 3.60012 256.783 1.38578L253.955 4.21421ZM256.069 9.69999V12.7H260.069V9.69999H256.069ZM256.069 12.7C256.069 15.0278 255.341 16.8001 253.955 18.1858L256.783 21.0142C258.998 18.7999 260.069 15.9722 260.069 12.7H256.069ZM253.955 18.1858C252.688 19.4523 250.465 20.3 246.819 20.3V24.3C250.973 24.3 254.45 23.3477 256.783 21.0142L253.955 18.1858ZM237.219 35.7H256.419V31.7H237.219V35.7ZM254.419 33.7V112H258.419V33.7H254.419ZM256.419 110H237.219V114H256.419V110ZM239.219 112V33.7H235.219V112H239.219ZM292.474 112L290.577 112.632L291.033 114H292.474V112ZM266.374 33.7V31.7H263.599L264.477 34.3325L266.374 33.7ZM285.274 33.7L287.177 33.0828L286.728 31.7H285.274V33.7ZM296.224 67.45L298.153 66.9211L298.141 66.8766L298.127 66.8328L296.224 67.45ZM303.874 95.35L301.945 95.8789L302.349 97.35H303.874V95.35ZM304.924 95.35V97.35H306.45L306.853 95.8789L304.924 95.35ZM312.574 67.45L310.667 66.8481L310.655 66.8844L310.645 66.9211L312.574 67.45ZM323.224 33.7V31.7H321.758L321.317 33.0981L323.224 33.7ZM341.524 33.7L343.421 34.3357L344.304 31.7H341.524V33.7ZM315.274 112V114H316.713L317.171 112.636L315.274 112ZM294.372 111.368L268.272 33.0675L264.477 34.3325L290.577 112.632L294.372 111.368ZM266.374 35.7H285.274V31.7H266.374V35.7ZM283.372 34.3172L294.322 68.0672L298.127 66.8328L287.177 33.0828L283.372 34.3172ZM294.295 67.9789L301.945 95.8789L305.803 94.8211L298.153 66.9211L294.295 67.9789ZM303.874 97.35H304.924V93.35H303.874V97.35ZM306.853 95.8789L314.503 67.9789L310.645 66.9211L302.995 94.8211L306.853 95.8789ZM314.482 68.0519L325.132 34.3019L321.317 33.0981L310.667 66.8481L314.482 68.0519ZM323.224 35.7H341.524V31.7H323.224V35.7ZM339.628 33.0643L313.378 111.364L317.171 112.636L343.421 34.3357L339.628 33.0643ZM315.274 110H292.474V114H315.274V110ZM366.214 110.95L365.402 112.778L365.426 112.788L365.451 112.799L366.214 110.95ZM354.664 102.7L353.149 104.005L353.168 104.028L353.188 104.05L354.664 102.7ZM347.464 89.8L345.567 90.4325L345.571 90.4438L347.464 89.8ZM347.314 55.9L345.421 55.2562L345.415 55.2733L345.41 55.2904L347.314 55.9ZM354.514 43.15L356.012 44.4761L356.021 44.4656L356.03 44.455L354.514 43.15ZM365.914 34.9L366.692 36.7425L366.71 36.7352L366.727 36.7276L365.914 34.9ZM397.114 35.05L396.269 36.8624L397.114 35.05ZM408.214 43.6L409.772 42.3453L408.214 43.6ZM414.664 56.2L412.744 56.76L412.751 56.7841L412.759 56.8081L414.664 56.2ZM416.914 77.65V79.65H418.914V77.65H416.914ZM364.864 77.65V75.65H362.864V77.65H364.864ZM369.664 93.4L368.188 94.7495L368.198 94.7602L368.208 94.7707L369.664 93.4ZM395.614 95.5L394.53 93.8194L394.518 93.8276L394.505 93.8359L395.614 95.5ZM403.864 87.85L405.354 86.5153L403.752 84.7279L402.283 86.6257L403.864 87.85ZM414.214 99.4L415.844 100.559L416.771 99.256L415.704 98.0653L414.214 99.4ZM401.014 110.05L401.842 111.871L401.849 111.867L401.857 111.864L401.014 110.05ZM364.864 65.8H362.864V67.8H364.864V65.8ZM396.964 65.8V67.8H398.964V65.8H396.964ZM392.914 51.4L391.326 52.6149L391.346 52.641L391.367 52.6665L392.914 51.4ZM381.814 111.8C376.234 111.8 371.299 110.886 366.978 109.101L365.451 112.799C370.33 114.814 375.795 115.8 381.814 115.8V111.8ZM367.027 109.122C362.769 107.23 359.147 104.639 356.141 101.35L353.188 104.05C356.582 107.761 360.66 110.67 365.402 112.778L367.027 109.122ZM356.18 101.395C353.265 98.0097 350.985 93.9407 349.358 89.1562L345.571 90.4438C347.344 95.6593 349.864 100.19 353.149 104.005L356.18 101.395ZM349.362 89.1675C347.74 84.3031 346.914 78.8211 346.914 72.7H342.914C342.914 79.1789 343.789 85.0969 345.567 90.4324L349.362 89.1675ZM346.914 72.7C346.914 66.6705 347.693 61.2806 349.219 56.5096L345.41 55.2904C343.736 60.5194 342.914 66.3295 342.914 72.7H346.914ZM349.208 56.5438C350.834 51.7628 353.109 47.7531 356.012 44.4761L353.017 41.8239C349.72 45.5469 347.195 50.0372 345.421 55.2562L349.208 56.5438ZM356.03 44.455C358.923 41.0954 362.468 38.5261 366.692 36.7425L365.137 33.0575C360.361 35.0739 356.306 38.0046 352.999 41.8449L356.03 44.455ZM366.727 36.7276C370.934 34.8578 375.751 33.9 381.214 33.9V29.9C375.278 29.9 369.895 30.9422 365.102 33.0724L366.727 36.7276ZM381.214 33.9C387.087 33.9 392.087 34.9109 396.269 36.8624L397.96 33.2376C393.142 30.9891 387.541 29.9 381.214 29.9V33.9ZM396.269 36.8624C400.513 38.843 403.963 41.5098 406.657 44.8547L409.772 42.3453C406.666 38.4902 402.716 35.457 397.96 33.2376L396.269 36.8624ZM406.657 44.8547C409.378 48.233 411.412 52.1923 412.744 56.76L416.584 55.64C415.117 50.6077 412.851 46.167 409.772 42.3453L406.657 44.8547ZM412.759 56.8081C414.191 61.2938 414.914 66.137 414.914 71.35H418.914C418.914 65.763 418.138 60.5062 416.57 55.5919L412.759 56.8081ZM414.914 71.35V77.65H418.914V71.35H414.914ZM416.914 75.65H364.864V79.65H416.914V75.65ZM362.864 77.65V79.6H366.864V77.65H362.864ZM362.864 79.6C362.864 85.693 364.586 90.8092 368.188 94.7495L371.141 92.0505C368.343 88.9908 366.864 84.907 366.864 79.6H362.864ZM368.208 94.7707C371.904 98.6978 377.263 100.5 383.914 100.5V96.5C377.966 96.5 373.825 94.9021 371.121 92.0293L368.208 94.7707ZM383.914 100.5C388.981 100.5 393.303 99.4448 396.724 97.1641L394.505 93.8359C391.926 95.5552 388.448 96.5 383.914 96.5V100.5ZM396.699 97.1806C400.001 95.0502 402.916 92.3422 405.446 89.0743L402.283 86.6257C400.013 89.5578 397.428 91.9497 394.53 93.8194L396.699 97.1806ZM402.375 89.1847L412.725 100.735L415.704 98.0653L405.354 86.5153L402.375 89.1847ZM412.585 98.241C409.609 102.426 405.495 105.765 400.172 108.236L401.857 111.864C407.734 109.135 412.42 105.374 415.844 100.559L412.585 98.241ZM400.187 108.229C394.995 110.589 388.887 111.8 381.814 111.8V115.8C389.342 115.8 396.034 114.511 401.842 111.871L400.187 108.229ZM381.514 44.3C375.92 44.3 371.294 46.1901 367.865 50.0768L370.864 52.7232C373.435 49.8099 376.909 48.3 381.514 48.3V44.3ZM367.865 50.0768C364.483 53.9095 362.864 58.8107 362.864 64.6H366.864C366.864 59.5893 368.246 55.6905 370.864 52.7232L367.865 50.0768ZM362.864 64.6V65.8H366.864V64.6H362.864ZM364.864 67.8H396.964V63.8H364.864V67.8ZM398.964 65.8V64.45H394.964V65.8H398.964ZM398.964 64.45C398.964 58.714 397.525 53.8773 394.462 50.1335L391.367 52.6665C393.703 55.5227 394.964 59.386 394.964 64.45H398.964ZM394.503 50.1851C391.458 46.2033 387.019 44.3 381.514 44.3V48.3C386.01 48.3 389.171 49.7967 391.326 52.6149L394.503 50.1851ZM437.557 110.05L436.649 111.832L436.663 111.839L436.677 111.846L437.557 110.05ZM424.057 99.4L422.661 97.9675L421.31 99.2841L422.546 100.71L424.057 99.4ZM435.757 88L437.259 86.6798L435.869 85.0981L434.361 86.5675L435.757 88ZM445.207 95.8L444.231 97.5459L444.242 97.5519L444.253 97.5577L445.207 95.8ZM467.107 96.25L465.895 94.6591L465.876 94.6735L465.858 94.6883L467.107 96.25ZM468.007 84.25L466.593 85.6642L466.643 85.7147L466.697 85.7614L468.007 84.25ZM460.657 81.4L460.94 79.4201L460.932 79.419L460.924 79.4179L460.657 81.4ZM452.857 80.35L453.124 78.3679L453.114 78.3665L452.857 80.35ZM433.357 73.15L432.05 74.6636L432.068 74.6795L432.087 74.6948L433.357 73.15ZM428.857 46.45L430.669 47.2958L430.675 47.2845L430.68 47.2732L428.857 46.45ZM434.857 38.65L436.114 40.2059L436.131 40.1915L436.149 40.1768L434.857 38.65ZM444.157 33.7L444.741 35.6127L444.758 35.6077L444.774 35.6024L444.157 33.7ZM466.507 32.8L466.102 34.7585L466.14 34.7664L466.178 34.7728L466.507 32.8ZM474.607 35.2L473.774 37.0181L473.806 37.0327L473.838 37.0462L474.607 35.2ZM481.207 39.1L479.958 40.6617L479.982 40.6813L480.007 40.7L481.207 39.1ZM487.057 44.2L488.471 45.6142L489.885 44.2L488.471 42.7858L487.057 44.2ZM475.807 55.45L474.363 56.8338L475.777 58.3088L477.221 56.8642L475.807 55.45ZM447.907 49.3L446.668 47.7302L446.647 47.7466L446.627 47.7636L447.907 49.3ZM447.457 61.15L446.092 62.6121L446.143 62.6589L446.196 62.7022L447.457 61.15ZM455.407 64L455.087 65.9742L455.116 65.9789L455.145 65.9828L455.407 64ZM463.357 65.05L463.638 63.0699L463.629 63.0685L463.619 63.0672L463.357 65.05ZM486.307 98.65L484.518 97.7556L484.512 97.7672L484.507 97.7789L486.307 98.65ZM479.857 106.75L481.093 108.323L481.11 108.309L481.127 108.295L479.857 106.75ZM469.657 112L470.245 113.912L470.26 113.907L470.275 113.902L469.657 112ZM456.457 111.8C449.169 111.8 443.19 110.584 438.437 108.254L436.677 111.846C442.124 114.516 448.746 115.8 456.457 115.8V111.8ZM438.465 108.268C433.604 105.79 429.307 102.403 425.568 98.0901L422.546 100.71C426.607 105.397 431.31 109.11 436.649 111.832L438.465 108.268ZM425.453 100.832L437.153 89.4325L434.361 86.5675L422.661 97.9675L425.453 100.832ZM434.255 89.3202C437.286 92.7694 440.609 95.5217 444.231 97.5459L446.183 94.0541C443.005 92.2782 440.028 89.8306 437.259 86.6798L434.255 89.3202ZM444.253 97.5577C448.082 99.6364 452.418 100.65 457.207 100.65V96.65C452.996 96.65 449.332 95.7636 446.161 94.0423L444.253 97.5577ZM457.207 100.65C461.94 100.65 465.814 99.8459 468.356 97.8117L465.858 94.6883C464.4 95.854 461.674 96.65 457.207 96.65V100.65ZM468.319 97.8409C470.95 95.8367 472.257 93.0302 472.257 89.65H468.257C468.257 91.8698 467.465 93.4633 465.895 94.6591L468.319 97.8409ZM472.257 89.65C472.257 86.8719 471.327 84.4806 469.317 82.7386L466.697 85.7614C467.687 86.6194 468.257 87.828 468.257 89.65H472.257ZM469.421 82.8358C467.555 80.9699 464.571 79.9389 460.94 79.4201L460.374 83.3799C463.743 83.8611 465.659 84.7301 466.593 85.6642L469.421 82.8358ZM460.924 79.4179L453.124 78.3679L452.59 82.3321L460.39 83.3821L460.924 79.4179ZM453.114 78.3665C444.821 77.2934 438.731 74.9795 434.627 71.6051L432.087 74.6948C436.983 78.7205 443.893 81.2066 452.6 82.3335L453.114 78.3665ZM434.664 71.6364C430.806 68.3046 428.757 63.4192 428.757 56.65H424.757C424.757 64.2808 427.108 70.3954 432.05 74.6636L434.664 71.6364ZM428.757 56.65C428.757 53.0991 429.41 49.9945 430.669 47.2958L427.045 45.6042C425.504 48.9055 424.757 52.6009 424.757 56.65H428.757ZM430.68 47.2732C431.953 44.4531 433.762 42.1057 436.114 40.2059L433.6 37.0941C430.753 39.3943 428.561 42.2469 427.034 45.6268L430.68 47.2732ZM436.149 40.1768C438.521 38.1697 441.374 36.6418 444.741 35.6127L443.573 31.7873C439.74 32.9582 436.393 34.7303 433.565 37.1232L436.149 40.1768ZM444.774 35.6024C448.246 34.4763 452.134 33.9 456.457 33.9V29.9C451.78 29.9 447.468 30.5237 443.54 31.7976L444.774 35.6024ZM456.457 33.9C460.157 33.9 463.366 34.1926 466.102 34.7585L466.912 30.8415C463.848 30.2074 460.357 29.9 456.457 29.9V33.9ZM466.178 34.7728C469.03 35.248 471.556 36.0019 473.774 37.0181L475.44 33.3819C472.858 32.1981 469.984 31.352 466.836 30.8272L466.178 34.7728ZM473.838 37.0462C476.068 37.9753 478.106 39.1803 479.958 40.6617L482.456 37.5383C480.308 35.8197 477.946 34.4246 475.376 33.3538L473.838 37.0462ZM480.007 40.7C481.926 42.1392 483.805 43.7762 485.643 45.6142L488.471 42.7858C486.509 40.8238 484.488 39.0608 482.407 37.5L480.007 40.7ZM485.643 42.7858L474.393 54.0358L477.221 56.8642L488.471 45.6142L485.643 42.7858ZM477.251 54.0662C474.781 51.4885 471.841 49.3558 468.451 47.6611L466.663 51.2389C469.673 52.7442 472.233 54.6115 474.363 56.8338L477.251 54.0662ZM468.451 47.6611C464.957 45.9137 461.148 45.05 457.057 45.05V49.05C460.566 49.05 463.757 49.7863 466.663 51.2389L468.451 47.6611ZM457.057 45.05C452.705 45.05 449.099 45.8109 446.668 47.7302L449.146 50.8698C450.515 49.7891 453.009 49.05 457.057 49.05V45.05ZM446.627 47.7636C444.358 49.6541 443.207 52.1731 443.207 55.15H447.207C447.207 53.3269 447.856 51.9459 449.187 50.8364L446.627 47.7636ZM443.207 55.15C443.207 58.1469 444.085 60.7384 446.092 62.6121L448.822 59.6879C447.829 58.7616 447.207 57.3531 447.207 55.15H443.207ZM446.196 62.7022C448.209 64.3377 451.283 65.3573 455.087 65.9742L455.727 62.0258C452.131 61.4427 449.905 60.5623 448.718 59.5978L446.196 62.7022ZM455.145 65.9828L463.095 67.0328L463.619 63.0672L455.669 62.0172L455.145 65.9828ZM463.076 67.0301C471.313 68.1999 477.207 70.6269 481.022 74.1033C484.772 77.5205 486.707 82.1274 486.707 88.15H490.707C490.707 81.1726 488.417 75.4295 483.717 71.1467C479.082 66.9231 472.301 64.3001 463.638 63.0699L463.076 67.0301ZM486.707 88.15C486.707 91.6593 485.971 94.8504 484.518 97.7556L488.096 99.5444C489.843 96.0495 490.707 92.2407 490.707 88.15H486.707ZM484.507 97.7789C483.139 100.605 481.176 103.078 478.588 105.205L481.127 108.295C484.138 105.822 486.475 102.895 488.107 99.5211L484.507 97.7789ZM478.621 105.177C476.036 107.208 472.855 108.858 469.039 110.098L470.275 113.902C474.459 112.542 478.078 110.692 481.093 108.323L478.621 105.177ZM469.069 110.088C465.393 111.219 461.196 111.8 456.457 111.8V115.8C461.518 115.8 466.121 115.181 470.245 113.912L469.069 110.088Z" fill="#FFF2C7"/>
</svg>
