<svg width="80" height="80" viewBox="0 0 80 80" fill="none" xmlns="http://www.w3.org/2000/svg">
<path d="M23.9095 31.2001C23.0847 31.1201 22.2815 31.3153 21.4751 31.4265C21.4055 31.3521 21.4671 31.2969 21.4959 31.2497C23.4543 28.0441 26.1599 25.8601 29.9087 25.1097C31.2288 24.8409 32.5844 24.7938 33.9199 24.9705C34.4575 25.0433 34.9439 24.8457 35.4535 24.7705C35.9407 24.6985 36.0367 24.7705 35.7919 25.1961C35.3119 26.0313 35.6015 26.8473 35.7367 27.6761C35.9735 29.1187 36.2213 30.5601 36.4799 32.0001C36.5271 32.2673 36.4727 32.4705 36.2799 32.6457C35.9119 32.9809 35.5959 33.4049 34.9791 33.2009C34.5791 33.0697 34.2719 32.9081 34.2591 32.4305C34.2533 32.3237 34.2138 32.2215 34.1463 32.1385C33.6047 31.5161 33.0727 30.8817 32.4167 30.3721C32.0287 30.0705 31.8055 30.1121 31.5279 30.5257C31.2135 30.9937 31.0407 31.5289 30.8383 32.0497C30.3583 33.2777 29.8863 34.5065 29.1047 35.5873C28.9495 35.8017 28.7967 35.8969 28.5151 35.8697C27.4453 35.7586 26.3687 35.7287 25.2943 35.7801C25.3167 35.9281 25.4135 35.9241 25.5079 35.9361C26.5647 36.0657 27.6199 36.2017 28.6767 36.3289C29.5095 36.4297 30.0367 37.3033 29.6975 38.0625C29.0271 39.5264 28.2767 40.9523 27.4495 42.3337C27.3449 42.5199 27.191 42.6738 27.0047 42.7785C26.5631 43.0238 26.1239 43.2739 25.6871 43.5289C25.5127 43.6305 25.3983 43.6089 25.3103 43.4153C25.1073 42.9779 25.031 42.4923 25.0903 42.0137C25.1295 41.7009 25.6447 41.4537 26.0255 41.5377C26.4983 41.6441 26.7143 41.4673 26.6943 40.9777C26.6847 40.7473 26.7959 40.5673 26.9071 40.3881C27.2871 39.7785 27.6775 39.1753 28.0583 38.5657C28.1383 38.4353 28.2887 38.2945 28.1855 38.1353C28.0823 37.9761 27.8935 38.0241 27.7391 38.0377C27.0279 38.1001 26.3335 38.1529 25.6591 38.4785C24.5135 39.0305 23.2591 39.2553 22.0039 39.4289C20.3735 39.6537 18.7167 39.6329 17.0743 39.9649C17.1271 39.2209 17.1959 38.5041 17.0695 37.7097C16.8767 37.9433 16.8639 38.1417 16.8415 38.3313C16.5655 40.7081 15.2519 42.4289 13.3799 43.7905C12.2419 44.6092 10.9536 45.1956 9.58873 45.5161C8.63433 45.7489 7.95273 46.2745 7.48073 47.1377C6.94393 48.1193 6.52713 49.1625 5.97113 50.1297C5.38953 51.1425 4.49593 51.7905 3.31593 51.9745C2.71433 52.0681 2.61833 51.9457 2.79513 51.3617C2.86873 51.1217 2.96233 50.8817 3.04713 50.6465C3.23913 50.1041 3.48473 49.6465 4.19513 49.7345C4.46313 49.7681 4.60793 49.5745 4.70233 49.3193C5.24713 47.8473 5.81353 46.3841 6.35353 44.9105C6.39157 44.7845 6.45898 44.6693 6.55021 44.5745C6.64145 44.4796 6.75391 44.4078 6.87833 44.3649C7.51833 44.1249 8.15833 43.9017 8.77753 43.6353C9.84793 43.1785 10.1535 42.6753 10.0791 41.5265C10.0175 40.5577 9.89593 39.5897 10.1023 38.6233C10.5143 36.6865 11.7823 35.4401 13.4319 34.5089C14.9087 33.6769 16.5303 33.2497 18.1519 32.8289C19.9295 32.3723 21.7061 31.9123 23.4815 31.4489C23.6319 31.4097 23.7783 31.3577 23.9263 31.3121L23.9095 31.2001Z" fill="#03B1F0"/>
<path d="M40.1809 48.7266C42.0513 48.7266 43.5129 50.1666 43.4993 51.9882C43.4849 53.8338 42.0049 55.2682 40.1297 55.2546C38.2761 55.241 36.8385 53.825 36.8369 52.0098C36.8353 50.1602 38.3017 48.7202 40.1809 48.7266ZM38.2665 51.9546C38.2617 53.1226 39.0609 53.9882 40.1521 53.9962C41.2673 54.0042 42.0817 53.1634 42.0817 52.0034C42.0817 50.8642 41.2465 49.9858 40.1617 49.9802C39.0561 49.9746 38.2713 50.7938 38.2665 51.9546Z" fill="#06B4F1"/>
<path d="M27.6596 49.7778C28.0836 49.2282 28.5556 48.8714 29.1948 48.7594C30.5508 48.5194 31.714 49.3634 31.7836 50.7378C31.8468 51.985 31.8132 53.2378 31.8036 54.4882C31.8036 54.9058 31.5172 55.1426 31.1036 55.1394C30.69 55.1362 30.4076 54.8906 30.3908 54.4458C30.3716 53.9146 30.3852 53.3818 30.3844 52.8458C30.3844 52.3802 30.3932 51.9138 30.378 51.449C30.3492 50.5354 29.8668 50.0162 29.062 50.0154C28.2348 50.0154 27.6636 50.5754 27.6436 51.4674C27.622 52.4378 27.6436 53.4098 27.6332 54.381C27.6292 54.861 27.3788 55.1234 26.9436 55.1338C26.5084 55.1442 26.2188 54.8938 26.2164 54.4658C26.2052 52.8029 26.2052 51.1397 26.2164 49.4762C26.2129 49.3004 26.2783 49.1303 26.3987 49.0021C26.519 48.874 26.6848 48.7981 26.8604 48.7906C27.0415 48.7768 27.2211 48.832 27.3632 48.945C27.5053 49.0581 27.5995 49.2207 27.6268 49.4002C27.6444 49.5026 27.6452 49.6002 27.6596 49.7778Z" fill="#06B4F1"/>
<path d="M46.5478 49.755C47.1942 48.9118 47.9958 48.583 48.9974 48.7838C49.9374 48.9726 50.6166 49.7126 50.6446 50.6782C50.6806 51.9542 50.6638 53.2318 50.6574 54.5086C50.6574 54.8958 50.375 55.155 49.999 55.1654C49.909 55.1701 49.8189 55.157 49.734 55.1269C49.649 55.0967 49.5708 55.0501 49.504 54.9897C49.4371 54.9293 49.3828 54.8562 49.3442 54.7747C49.3056 54.6933 49.2834 54.605 49.279 54.515C49.2518 54.011 49.2694 53.5046 49.2646 52.995C49.259 52.4102 49.2814 51.823 49.2342 51.2414C49.1726 50.483 48.7254 50.0646 48.0094 50.0182C47.2934 49.9718 46.751 50.379 46.5694 51.0798C46.4542 51.5262 46.5182 51.9798 46.5102 52.4302C46.499 53.0702 46.5102 53.7102 46.5062 54.3454C46.5062 54.8486 46.2102 55.1702 45.7782 55.1614C45.3646 55.1542 45.0822 54.8414 45.0806 54.3542C45.075 52.7982 45.0806 51.2414 45.0806 49.6854C45.0806 49.1198 45.327 48.8054 45.7662 48.7886C46.2054 48.7718 46.4694 49.0678 46.511 49.6294C46.5197 49.6722 46.532 49.7142 46.5478 49.755Z" fill="#05B3F1"/>
<path d="M22.8406 54.2605C22.7134 54.2813 22.6758 54.3773 22.619 54.4445C21.9478 55.2445 20.9614 55.3669 20.0302 55.0677C19.1998 54.8005 18.7054 53.9917 18.6982 52.9877C18.6902 51.8429 18.6934 50.6973 18.6982 49.5525C18.6982 49.0725 18.9566 48.7989 19.3806 48.7941C19.8198 48.7893 20.1054 49.0765 20.111 49.5605C20.1198 50.4125 20.111 51.2645 20.111 52.1205C20.111 52.2805 20.111 52.4405 20.1222 52.6005C20.1782 53.4509 20.663 53.9293 21.459 53.9253C22.255 53.9213 22.819 53.3941 22.8454 52.5765C22.8758 51.5917 22.8598 50.6061 22.8582 49.6165C22.8582 49.2301 22.9942 48.9317 23.3822 48.8165C23.8622 48.6733 24.2798 49.0069 24.2822 49.5365C24.2886 51.1477 24.2886 52.7589 24.2822 54.3701C24.2822 54.8365 24.0142 55.1429 23.6134 55.1613C23.2126 55.1797 22.927 54.9029 22.8606 54.4413C22.855 54.3853 22.8486 54.3245 22.8406 54.2605Z" fill="#06B4F1"/>
<path d="M0.376605 42.5374C0.284488 42.1348 0.307779 41.7145 0.443805 41.3246C1.12701 39.1854 2.70541 38.0974 4.79741 37.611C5.55581 37.435 6.32621 37.4198 7.09821 37.439C8.07821 37.463 9.03821 37.3918 9.93501 36.9462C10.0198 36.9038 10.1214 36.8494 10.195 36.923C10.2854 37.0134 10.1734 37.0902 10.1278 37.163C9.88506 37.5127 9.68925 37.8927 9.54541 38.2934C9.46941 38.5166 9.2766 38.5774 9.1054 38.6662C7.37101 39.5638 5.5198 40.1238 3.62381 40.5662C2.96221 40.7214 2.31421 40.9126 1.71261 41.2382C1.14744 41.528 0.682088 41.9805 0.376605 42.5374Z" fill="#05B3F1"/>
<path d="M31.5348 36.4675C31.2564 36.4915 30.9676 36.4763 30.7028 36.5475C30.1932 36.6867 29.85 36.4355 29.5028 36.1379C29.4028 36.0531 29.4164 35.9963 29.4708 35.9075C29.5748 35.7371 29.678 35.5667 29.7756 35.3931C30.2468 34.5579 30.2468 34.5555 31.2084 34.6731C31.7892 34.7435 32.3692 34.8211 32.9492 34.8963C33.5716 34.9763 34.0572 35.7619 33.8052 36.3403C33.212 37.7232 32.505 39.0544 31.6916 40.3203C31.3308 40.8747 30.634 41.0515 30.0676 41.3603C29.9468 41.4267 29.882 41.2915 29.8388 41.1963C29.6633 40.8203 29.5958 40.4029 29.6436 39.9907C29.6804 39.7003 30.1076 39.4723 30.4636 39.5347C30.9356 39.6147 31.0748 39.5035 31.0804 39.0147C31.0804 38.8155 31.178 38.6579 31.2756 38.5011C31.614 37.9595 31.9628 37.4251 32.298 36.8819C32.514 36.5331 32.4676 36.4587 32.0532 36.4515C31.9604 36.4515 31.8676 36.4555 31.774 36.4595C31.694 36.4595 31.614 36.4699 31.534 36.4755L31.5348 36.4675Z" fill="#06B4F1"/>
<path d="M53.562 50.2023C54.1644 49.3815 54.922 48.8423 55.9716 48.8487C56.7133 48.8459 57.426 49.1367 57.954 49.6575C59.1388 50.7951 59.234 52.8879 58.154 54.1335C57.754 54.5991 57.2588 54.9407 56.6564 55.0687C56.0832 55.2059 55.4824 55.1717 54.9284 54.9703C54.3532 54.7503 53.942 54.3247 53.4692 53.8967C53.4692 54.1303 53.4692 54.3639 53.4692 54.5975C53.4692 54.8135 53.4892 55.0663 53.1756 55.0543C52.9044 55.0439 52.8996 54.8191 52.9004 54.6087C52.9004 53.9167 52.9004 53.2247 52.9004 52.5287C52.9004 50.9575 52.9004 49.3866 52.9004 47.8159C52.9004 47.7095 52.9004 47.6031 52.9044 47.4959C52.9156 47.3271 53.0076 47.2135 53.178 47.2119C53.3732 47.2119 53.4532 47.3311 53.454 47.5239C53.454 48.2559 53.4628 48.9879 53.4676 49.7199C53.4676 49.8623 53.4676 50.0047 53.4676 50.1471L53.562 50.2023ZM58.2772 51.9999C58.2676 50.4799 57.2684 49.3927 55.89 49.4015C54.5116 49.4103 53.4396 50.5599 53.4444 52.0247C53.4492 53.4895 54.5444 54.6207 55.9244 54.6191C57.3172 54.6175 58.2868 53.5399 58.2772 51.9999Z" fill="#0AB8F2"/>
<path d="M64.8004 54.047C63.79 55.255 62.4212 55.327 61.402 54.951C60.5612 54.6398 60.1468 54.015 60.1636 53.191C60.1796 52.4038 60.6356 51.8014 61.4604 51.511C62.4516 51.1566 63.4604 51.2558 64.4524 51.475C64.7524 51.5406 64.814 51.4862 64.8052 51.1934C64.774 50.183 64.1404 49.5238 63.0964 49.4478C62.4562 49.4015 61.8145 49.5141 61.2284 49.7758C61.0396 49.8558 60.8284 49.9622 60.7244 49.6958C60.6204 49.4294 60.842 49.3534 61.0308 49.2758C61.8308 48.9462 62.662 48.8054 63.5284 48.9606C64.6116 49.155 65.3212 49.9206 65.35 51.0182C65.3828 52.2414 65.3604 53.467 65.3636 54.691C65.3636 54.8822 65.3236 55.055 65.1012 55.0654C64.854 55.0774 64.7972 54.9006 64.8004 54.6902C64.8004 54.5014 64.8004 54.3198 64.8004 54.047ZM63.2004 51.8126C62.4948 51.799 62.0164 51.8126 61.5708 52.0254C61.0908 52.2526 60.794 52.6158 60.7756 53.1678C60.7572 53.7334 61.0156 54.1454 61.5116 54.3878C62.3468 54.795 63.1684 54.6902 63.9476 54.235C64.6788 53.8086 64.874 53.1222 64.8212 52.3206C64.8076 52.119 64.7412 52.043 64.554 52.0006C64.0268 51.895 63.5028 51.8134 63.194 51.8126H63.2004Z" fill="#0AB8F2"/>
<path d="M76.8558 52.0939C76.3886 52.5515 75.9454 52.9915 75.4958 53.4235C75.3758 53.5387 75.3582 53.6707 75.3606 53.8235C75.3606 54.1299 75.3606 54.4363 75.3606 54.7419C75.3606 54.9323 75.2805 55.0499 75.0773 55.0459C74.8741 55.0419 74.7966 54.9227 74.7942 54.7355C74.7942 54.6819 74.7942 54.6291 74.7942 54.5755C74.7942 52.2987 74.7942 50.0217 74.7942 47.7443C74.7896 47.6512 74.7923 47.5578 74.8022 47.4651C74.8063 47.3972 74.8366 47.3336 74.8868 47.2876C74.9369 47.2416 75.0029 47.2169 75.071 47.2187C75.1079 47.2155 75.1452 47.2205 75.18 47.2332C75.2149 47.246 75.2465 47.2663 75.2727 47.2926C75.2988 47.3189 75.3189 47.3506 75.3315 47.3856C75.344 47.4205 75.3488 47.4578 75.3454 47.4947C75.351 47.7211 75.3598 47.9467 75.3598 48.1731C75.3598 49.5715 75.3598 50.9699 75.3598 52.3683V52.7619C75.5502 52.7403 75.6109 52.6083 75.6973 52.5219C76.7277 51.4622 77.7555 50.4001 78.7806 49.3355C78.855 49.2555 78.931 49.1843 79.0038 49.1067C79.1366 48.9635 79.2974 48.8883 79.4558 49.0315C79.6278 49.1875 79.5254 49.3427 79.3934 49.4771C78.9822 49.8947 78.5694 50.3107 78.1606 50.7299C77.863 51.0347 77.367 51.3219 77.331 51.6563C77.291 52.0267 77.7998 52.3483 78.0686 52.6915C78.5374 53.2883 79.0198 53.8739 79.4998 54.4619C79.6326 54.6219 79.7742 54.8219 79.5902 54.9843C79.3886 55.1627 79.2062 55.0075 79.0582 54.8243C78.327 53.9067 77.5886 52.9987 76.8558 52.0939Z" fill="#0AB8F2"/>
<path d="M67.9799 49.9362C68.6375 49.1114 69.4575 48.7602 70.4839 48.8674C71.6511 48.9882 72.4959 49.8114 72.5423 50.985C72.5911 52.221 72.5607 53.4602 72.5655 54.6978C72.5655 54.8914 72.5215 55.0482 72.2847 55.0442C72.0271 55.0394 71.9951 54.8626 71.9951 54.6586C71.9951 53.6335 71.9951 52.6085 71.9951 51.5834C72.0007 51.384 71.9905 51.1844 71.9647 50.9866C71.7935 49.9298 71.0439 49.3242 69.9807 49.3722C68.8935 49.421 68.0311 50.2458 67.9935 51.3362C67.9591 52.3466 67.9831 53.3586 67.9815 54.3706C67.9815 54.477 67.9815 54.5834 67.9815 54.6906C67.9815 54.881 67.9359 55.0394 67.7015 55.045C67.4671 55.0506 67.4039 54.909 67.4023 54.7098C67.4023 54.6562 67.4023 54.6034 67.4023 54.5498V49.4778C67.4023 49.4114 67.4023 49.345 67.4023 49.2786C67.4127 49.1026 67.4711 48.9586 67.6775 48.9586C67.9023 48.9586 67.9711 49.1098 67.9767 49.3018C67.9847 49.5114 67.9799 49.7234 67.9799 49.9362Z" fill="#0AB8F2"/>
<path d="M35.1696 51.9778C35.1696 52.7778 35.1696 53.573 35.1696 54.3706C35.1696 54.8674 34.9408 55.121 34.504 55.1386C34.0488 55.1562 33.756 54.8986 33.752 54.4042C33.7402 52.7829 33.7402 51.161 33.752 49.5386C33.756 49.0754 34.0608 48.7898 34.4672 48.793C34.8936 48.793 35.1648 49.0954 35.168 49.585C35.1736 50.3826 35.1696 51.1802 35.1696 51.9778Z" fill="#06B4F1"/>
<path d="M8.17801 49.3733C8.01801 49.3949 7.92601 49.2597 8.01801 48.9829C8.10601 48.7189 8.20761 48.4589 8.29481 48.1941C8.43481 47.7661 8.66281 47.4741 9.17481 47.4997C9.44281 47.5133 9.62041 47.3581 9.67081 47.0805C9.82281 46.2381 10.2876 45.6925 11.1364 45.4701C11.4004 45.4013 11.6372 45.2301 11.8876 45.1061C11.9564 45.0717 12.0276 45.0045 12.1052 45.0661C12.1828 45.1277 12.1284 45.2109 12.094 45.2781C11.614 46.2269 11.214 47.2301 10.574 48.0733C10.0284 48.7853 9.28041 49.3013 8.17801 49.3733Z" fill="#06B4F1"/>
</svg>
