<svg width="22" height="12" viewBox="0 0 22 12" fill="none" xmlns="http://www.w3.org/2000/svg">
<path d="M21.5 6C21.5 8.775 21.05 11.025 20.45 11.025C19.85 11.025 19.4 8.775 19.4 6C19.4 3.225 19.85 0.975 20.45 0.975C21.05 0.975 21.5 3.225 21.5 6ZM18.875 6C18.875 9.075 17.525 11.625 15.95 11.625C14.375 11.625 13.025 9.075 13.025 6C13.025 2.925 14.375 0.375 15.95 0.375C17.525 0.375 18.875 2.925 18.875 6ZM12.35 6C12.35 9.3 9.725 12 6.425 12C3.125 12 0.5 9.3 0.5 6C0.5 2.7 3.125 0 6.425 0C9.725 0 12.35 2.7 12.35 6Z" fill="#38516D"/>
</svg>
