<svg width="19" height="17" viewBox="0 0 19 17" fill="none" xmlns="http://www.w3.org/2000/svg">
<path d="M1.59356 0.984393C1.77461 0.963351 1.95797 0.992195 2.12382 1.0678C2.28967 1.14342 2.4317 1.26292 2.53456 1.41339C4.01056 3.57239 5.78256 4.47039 7.74956 4.67439C7.84556 3.83339 8.07256 3.00239 8.49956 2.27039C9.12556 1.19639 10.1436 0.406392 11.5976 0.114392C13.6076 -0.289608 15.1376 0.438393 16.0246 1.32939L17.8166 0.994393C18.0041 0.959256 18.1977 0.978496 18.3747 1.04984C18.5516 1.12119 18.7045 1.24166 18.8152 1.39704C18.9259 1.55242 18.9898 1.73623 18.9994 1.92677C19.0091 2.11731 18.964 2.30663 18.8696 2.47239L17.1496 5.49439C17.3066 9.85539 16.0946 12.8994 13.5106 14.9964C12.1406 16.1084 10.1786 16.7394 8.02556 16.9344C5.85556 17.1304 3.40256 16.8934 0.964555 16.1814C0.756248 16.1206 0.573356 15.9938 0.443481 15.8199C0.313606 15.6461 0.243796 15.4347 0.244586 15.2178C0.245377 15.0008 0.316724 14.7899 0.447862 14.617C0.578999 14.4442 0.76281 14.3186 0.971555 14.2594C2.19756 13.9104 3.13156 13.6094 3.97456 13.0824C2.77556 12.4464 1.89256 11.6144 1.26756 10.6664C0.399556 9.34839 0.0775553 7.87839 0.0135553 6.55339C-0.0504447 5.22839 0.140555 4.00039 0.342555 3.11539C0.457555 2.61039 0.591555 2.10439 0.776555 1.62039C0.841812 1.44978 0.952553 1.3003 1.09676 1.18818C1.24096 1.07606 1.41212 1.00558 1.59356 0.984393Z" fill="#38516D"/>
</svg>
