<svg width="20" height="20" viewBox="0 0 20 20" fill="none" xmlns="http://www.w3.org/2000/svg">
<path fill-rule="evenodd" clip-rule="evenodd" d="M4.76982 1.08194C8.24584 0.696644 11.7538 0.696644 15.2298 1.08194C17.1288 1.29394 18.6598 2.78894 18.8828 4.69494C19.295 8.2196 19.295 11.7803 18.8828 15.3049C18.6598 17.2109 17.1288 18.7059 15.2308 18.9189C11.7545 19.3043 8.24617 19.3043 4.76982 18.9189C2.87082 18.7059 1.33982 17.2109 1.11682 15.3059C0.704549 11.781 0.704549 8.21993 1.11682 4.69494C1.33982 2.78894 2.87082 1.29394 4.76982 1.08194ZM14.9998 3.99994C14.7346 3.99994 14.4802 4.1053 14.2927 4.29284C14.1052 4.48037 13.9998 4.73473 13.9998 4.99994C13.9998 5.26516 14.1052 5.51951 14.2927 5.70705C14.4802 5.89459 14.7346 5.99994 14.9998 5.99994C15.265 5.99994 15.5194 5.89459 15.7069 5.70705C15.8945 5.51951 15.9998 5.26516 15.9998 4.99994C15.9998 4.73473 15.8945 4.48037 15.7069 4.29284C15.5194 4.1053 15.265 3.99994 14.9998 3.99994ZM5.24982 9.99994C5.24982 8.74017 5.75027 7.53198 6.64106 6.64119C7.53186 5.75039 8.74004 5.24994 9.99982 5.24994C11.2596 5.24994 12.4678 5.75039 13.3586 6.64119C14.2494 7.53198 14.7498 8.74017 14.7498 9.99994C14.7498 11.2597 14.2494 12.4679 13.3586 13.3587C12.4678 14.2495 11.2596 14.7499 9.99982 14.7499C8.74004 14.7499 7.53186 14.2495 6.64106 13.3587C5.75027 12.4679 5.24982 11.2597 5.24982 9.99994Z" fill="#38516D"/>
</svg>
