<svg width="22" height="16" viewBox="0 0 22 16" fill="none" xmlns="http://www.w3.org/2000/svg">
<path d="M21.0571 2.94539C20.9376 2.50142 20.7036 2.09662 20.3785 1.77152C20.0534 1.44641 19.6486 1.21239 19.2046 1.09289C17.5696 0.650391 10.9996 0.650391 10.9996 0.650391C10.9996 0.650391 4.42959 0.650391 2.79459 1.09289C2.35062 1.21239 1.94582 1.44641 1.62071 1.77152C1.29561 2.09662 1.06159 2.50142 0.942088 2.94539C0.636797 4.61284 0.488648 6.30526 0.499588 8.00039C0.488648 9.69552 0.636797 11.3879 0.942088 13.0554C1.06159 13.4994 1.29561 13.9042 1.62071 14.2293C1.94582 14.5544 2.35062 14.7884 2.79459 14.9079C4.42959 15.3504 10.9996 15.3504 10.9996 15.3504C10.9996 15.3504 17.5696 15.3504 19.2046 14.9079C19.6486 14.7884 20.0534 14.5544 20.3785 14.2293C20.7036 13.9042 20.9376 13.4994 21.0571 13.0554C21.3624 11.3879 21.5105 9.69552 21.4996 8.00039C21.5105 6.30526 21.3624 4.61284 21.0571 2.94539ZM8.89959 11.1504V4.85039L14.3521 8.00039L8.89959 11.1504Z" fill="#38516D"/>
</svg>
